<?xml version="1.0" encoding="UTF-8"?>
<!DOCTYPE svg PUBLIC "-//W3C//DTD SVG 1.1//EN" "http://www.w3.org/Graphics/SVG/1.1/DTD/svg11.dtd">
<!-- Creator: CorelDRAW X7 -->
<svg xmlns="http://www.w3.org/2000/svg" xml:space="preserve" width="8.5in" height="11in" version="1.1" style="shape-rendering:geometricPrecision; text-rendering:geometricPrecision; image-rendering:optimizeQuality; fill-rule:evenodd; clip-rule:evenodd"
viewBox="0 0 8500 11000"
 xmlns:xlink="http://www.w3.org/1999/xlink">
 <defs>
  <style type="text/css">
   <![CDATA[
    .fil5 {fill:#6B809B}
    .fil1 {fill:#6B809B}
    .fil2 {fill:#436588}
    .fil0 {fill:#E6E6E6}
    .fil4 {fill:white}
    .fil3 {fill:url(#id0)}
    .fil6 {fill:url(#id1)}
    .fil7 {fill:url(#id2)}
    .fil8 {fill:url(#id3)}
   ]]>
  </style>
  <linearGradient id="id0" gradientUnits="userSpaceOnUse" x1="773.291" y1="1467.84" x2="3473.46" y2="1467.84">
   <stop offset="0" style="stop-opacity:1; stop-color:#123457"/>
   <stop offset="1" style="stop-opacity:1; stop-color:#3D6894"/>
  </linearGradient>
  <linearGradient id="id1" gradientUnits="userSpaceOnUse" xlink:href="#id0" x1="2093.07" y1="1467.84" x2="4793.24" y2="1467.84">
  </linearGradient>
  <linearGradient id="id2" gradientUnits="userSpaceOnUse" xlink:href="#id0" x1="3412.86" y1="1467.84" x2="6113.02" y2="1467.84">
  </linearGradient>
  <linearGradient id="id3" gradientUnits="userSpaceOnUse" xlink:href="#id0" x1="4732.64" y1="1467.84" x2="7432.81" y2="1467.84">
  </linearGradient>
 </defs>
 <g id="Layer_x0020_1">
  <metadata id="CorelCorpID_0Corel-Layer"/>
  <path class="fil0" d="M1160 2470c0,-8 3,-13 8,-18 0,0 0,-1 0,-1 14,12 28,24 43,36 -1,0 -1,1 -1,1 -14,11 -30,8 -38,3 0,107 1,214 1,321 -5,-2 -10,-4 -12,-6 -1,-112 -1,-224 -1,-336z"/>
  <path class="fil1" d="M1172 2488c14,8 27,6 39,-3 0,21 0,42 0,62 3,0 6,0 9,0 0,85 0,169 0,254 -16,11 -33,14 -47,8 0,-107 -1,-214 -1,-321z"/>
  <path class="fil2" d="M1160 2500c-5,-5 -8,-8 -11,-12 -10,-43 -19,-86 -27,-130 50,43 100,86 149,129 -16,21 -32,42 -48,63 -4,0 -8,0 -12,0 0,-21 0,-42 0,-63 -15,-12 -28,-24 -43,-36 -5,5 -8,11 -8,19 0,10 0,20 0,30z"/>
  <path class="fil0" d="M1220 2740c83,-29 163,-58 245,-87 2,3 6,5 10,8 -84,29 -168,60 -255,90 0,-3 0,-7 0,-11z"/>
  <path class="fil3" d="M1873 2608c-137,-120 -275,-240 -415,-362 -70,32 -139,64 -210,96 142,123 283,244 422,364 68,-33 136,-66 203,-98zm215 -104c-135,-119 -270,-239 -408,-360 -68,31 -137,63 -207,95 141,122 278,242 416,361 66,-32 132,-64 199,-96zm210 -102c-132,-118 -266,-237 -400,-358 -66,31 -135,62 -202,93 136,122 272,241 406,360 65,-32 130,-63 196,-95zm204 -99c-128,-117 -260,-236 -391,-356 -66,30 -132,60 -199,91 135,120 268,240 399,357 65,-30 129,-61 191,-92zm202 -98c-127,-116 -255,-234 -385,-354 -64,30 -129,60 -193,89 131,120 262,239 390,356 64,-30 127,-60 188,-91zm199 -95c-125,-116 -251,-234 -379,-352 -63,28 -126,58 -190,87 129,119 258,237 384,354 62,-30 124,-60 185,-89zm194 -94c-123,-116 -247,-232 -372,-350 -61,28 -123,57 -187,85 127,119 253,236 377,352 61,-29 121,-58 182,-87zm189 -92c-120,-115 -242,-231 -365,-348 -60,28 -121,56 -183,84 126,118 248,234 371,349 60,-28 118,-57 177,-85zm187 -91c-118,-114 -238,-229 -358,-346 -60,28 -120,55 -180,83 123,117 244,233 364,348 59,-28 116,-57 174,-85zm183 -88c-115,-114 -233,-228 -352,-344 -58,26 -117,53 -176,80 121,117 240,232 358,346 58,-27 114,-55 170,-82zm180 -87c-115,-113 -230,-227 -346,-343 -57,27 -115,53 -173,80 118,116 236,230 352,344 56,-27 112,-54 167,-81zm-164 -426c-56,26 -112,52 -170,78 117,115 232,229 346,342 56,-26 110,-53 165,-79 -113,-113 -226,-226 -341,-341zm-545 -295c122,123 244,243 366,363 58,-26 113,-52 170,-77 -120,-119 -240,-240 -361,-361 -58,25 -117,50 -175,75zm-194 83c126,123 250,245 374,365 58,-26 115,-53 174,-79 -122,-120 -244,-241 -367,-363 -60,25 -120,51 -181,77zm-195 84c128,124 254,247 380,368 59,-27 118,-54 177,-81 -124,-120 -248,-242 -374,-365 -61,26 -122,52 -183,78zm-200 86c130,125 259,248 387,370 60,-28 120,-55 180,-82 -127,-121 -253,-244 -381,-368 -61,27 -123,54 -186,80zm-203 88c131,125 263,249 393,372 61,-28 123,-56 183,-84 -128,-122 -257,-245 -387,-369 -63,27 -126,54 -189,81zm-208 90c134,126 268,250 400,373 63,-28 125,-57 188,-85 -131,-123 -262,-246 -394,-372 -66,28 -130,56 -194,84zm-212 91c137,127 273,252 408,376 64,-29 128,-58 190,-87 -132,-123 -266,-248 -400,-374 -66,28 -132,57 -198,85zm-217 93c141,128 278,254 417,378 65,-29 129,-59 194,-89 -136,-124 -271,-249 -409,-376 -67,29 -134,58 -202,87zm-221 95c142,128 284,255 424,381 67,-31 133,-61 199,-91 -138,-125 -277,-251 -418,-378 -67,29 -136,59 -205,88zm-226 97c146,129 289,257 433,383 67,-31 135,-62 203,-93 -141,-125 -282,-252 -425,-380 -70,30 -140,60 -211,90zm-228 99c147,130 294,259 439,386 70,-32 139,-64 207,-95 -143,-126 -288,-254 -433,-383 -71,31 -143,61 -213,92zm423 393c-145,-127 -292,-256 -440,-386 -73,32 -146,63 -219,95 151,130 300,259 449,387 71,-32 141,-65 210,-96z"/>
  <path class="fil4" d="M1236 2332c-149,-128 -298,-257 -449,-387 73,-32 146,-63 219,-95 148,130 295,259 440,386 -69,31 -139,64 -210,96zm12 10c71,-32 140,-64 210,-96 140,122 278,242 415,362 -67,32 -135,65 -203,98 -139,-120 -280,-241 -422,-364zm214 -113c-145,-127 -292,-256 -439,-386 70,-31 142,-61 213,-92 145,129 290,257 433,383 -68,31 -137,63 -207,95zm427 371c-138,-119 -275,-239 -416,-361 70,-32 139,-64 207,-95 138,121 273,241 408,360 -67,32 -133,64 -199,96zm-205 -473c-144,-126 -287,-254 -433,-383 71,-30 141,-60 211,-90 143,128 284,255 425,380 -68,31 -136,62 -203,93zm418 370c-134,-119 -270,-238 -406,-360 67,-31 136,-62 202,-93 134,121 268,240 400,358 -66,32 -131,63 -196,95zm-201 -469c-140,-126 -282,-253 -424,-381 69,-29 138,-59 205,-88 141,127 280,253 418,378 -66,30 -132,60 -199,91zm214 -98c-139,-124 -276,-250 -417,-378 68,-29 135,-58 202,-87 138,127 273,252 409,376 -65,30 -129,60 -194,89zm208 -95c-135,-124 -271,-249 -408,-376 66,-28 132,-57 198,-85 134,126 268,251 400,374 -62,29 -126,58 -190,87zm204 -94c-132,-123 -266,-247 -400,-373 64,-28 128,-56 194,-84 132,126 263,249 394,372 -63,28 -125,57 -188,85zm201 -91c-130,-123 -262,-247 -393,-372 63,-27 126,-54 189,-81 130,124 259,247 387,369 -60,28 -122,56 -183,84zm197 -90c-128,-122 -257,-245 -387,-370 63,-26 125,-53 186,-80 128,124 254,247 381,368 -60,27 -120,54 -180,82zm193 -88c-126,-121 -252,-244 -380,-368 61,-26 122,-52 183,-78 126,123 250,245 374,365 -59,27 -118,54 -177,81zm199 -77c58,-27 116,-53 173,-80 116,116 231,230 346,343 -55,27 -111,54 -167,81 -116,-114 -234,-228 -352,-344zm-2567 550c154,134 310,267 462,398 149,129 299,257 446,384 437,-211 856,-415 1257,-609 387,-188 760,-368 1119,-542 -119,-118 -239,-238 -359,-359 -121,-122 -246,-246 -369,-371 -385,165 -786,338 -1201,516 -434,187 -885,380 -1355,583zm1561 450c-131,-117 -264,-237 -399,-357 67,-31 133,-61 199,-91 131,120 263,239 391,356 -62,31 -126,62 -191,92zm205 -99c-128,-117 -259,-236 -390,-356 64,-29 129,-59 193,-89 130,120 258,238 385,354 -61,31 -124,61 -188,91zm-182 -451c64,-29 127,-59 190,-87 128,118 254,236 379,352 -61,29 -123,59 -185,89 -126,-117 -255,-235 -384,-354zm204 -94c64,-28 126,-57 187,-85 125,118 249,234 372,350 -61,29 -121,58 -182,87 -124,-116 -250,-233 -377,-352zm200 -91c62,-28 123,-56 183,-84 123,117 245,233 365,348 -59,28 -117,57 -177,85 -123,-115 -245,-231 -371,-349zm197 -90c60,-28 120,-55 180,-83 120,117 240,232 358,346 -58,28 -115,57 -174,85 -120,-115 -241,-231 -364,-348zm372 -185c-124,-120 -248,-242 -374,-365 61,-26 121,-52 181,-77 123,122 245,243 367,363 -59,26 -116,53 -174,79zm-179 96c59,-27 118,-54 176,-80 119,116 237,230 352,344 -56,27 -112,55 -170,82 -118,-114 -237,-229 -358,-346zm365 -181c-122,-120 -244,-240 -366,-363 58,-25 117,-50 175,-75 121,121 241,242 361,361 -57,25 -112,51 -170,77zm355 352c-114,-113 -229,-227 -346,-342 58,-26 114,-52 170,-78 115,115 228,228 341,341 -55,26 -109,53 -165,79z"/>
  <path class="fil5" d="M1658 2727c-147,-127 -297,-255 -446,-384 -152,-131 -308,-264 -462,-398 -2,9 -4,18 -6,28 7,6 13,11 19,17 153,131 303,261 452,389 148,127 294,252 439,375 436,-212 855,-415 1258,-611 386,-187 759,-369 1118,-543 2,-8 3,-16 4,-24 -359,174 -732,354 -1119,542 -401,194 -820,398 -1257,609z"/>
  <path class="fil5" d="M1654 2754c-145,-123 -291,-248 -439,-375 -149,-128 -299,-258 -452,-389 -8,3 -16,7 -24,10 153,132 304,262 452,390 148,126 294,252 439,375 8,-3 16,-7 24,-11 0,0 0,0 0,0z"/>
  <path class="fil5" d="M1630 2765c-145,-123 -291,-249 -439,-375 -148,-128 -299,-258 -452,-390 -1,9 -3,17 -4,26 130,112 259,223 387,332 50,43 100,86 149,129 65,56 129,111 194,166 2,3 6,5 10,8 50,43 101,87 151,129 7,-3 14,-7 22,-11 2,-8 4,-16 6,-25 -8,4 -16,8 -24,11z"/>
  <path class="fil0" d="M2812 2433c1,-7 2,-12 7,-17 0,0 0,0 0,0 12,11 25,22 37,33 0,0 0,0 0,0 -12,11 -26,8 -34,3 1,100 3,199 3,298 -4,-1 -7,-3 -10,-5 -1,-105 -2,-208 -3,-312z"/>
  <path class="fil1" d="M2822 2450c13,7 24,6 34,-3 0,19 0,39 1,58 2,0 5,0 7,0 2,78 2,157 3,235 -15,11 -29,13 -42,8 0,-99 -2,-199 -3,-298z"/>
  <path class="fil2" d="M2812 2460c-4,-3 -7,-7 -10,-10 -8,-41 -17,-81 -24,-121 44,40 87,80 131,120 -14,19 -27,39 -41,58 -4,0 -8,0 -11,0 -1,-19 -1,-38 -1,-58 -12,-11 -25,-22 -37,-33 -5,4 -6,10 -7,17 0,9 0,18 0,27z"/>
  <path class="fil0" d="M2866 2684c70,-27 140,-54 211,-81 2,3 4,5 8,8 -73,27 -145,55 -218,83 -1,-3 -1,-7 -1,-10z"/>
  <path class="fil6" d="M3430 2562c-120,-111 -240,-223 -362,-337 -60,30 -120,59 -181,89 122,114 245,227 366,339 60,-30 118,-61 177,-91zm184 -96c-118,-111 -236,-222 -355,-335 -60,29 -118,58 -179,87 122,114 243,226 362,337 57,-30 115,-59 172,-89zm182 -94c-116,-110 -232,-221 -350,-334 -58,29 -115,57 -175,86 120,113 238,225 355,335 57,-29 113,-58 170,-87zm177 -93c-113,-109 -227,-220 -343,-332 -56,29 -113,57 -171,85 118,112 233,223 350,333 54,-28 109,-57 164,-86zm175 -90c-111,-109 -224,-219 -337,-331 -56,28 -112,56 -168,83 115,112 229,223 342,332 55,-28 109,-56 163,-84zm171 -90c-109,-108 -220,-217 -331,-328 -55,27 -111,54 -165,81 113,112 226,221 337,330 53,-27 107,-55 159,-83zm169 -87c-108,-108 -217,-217 -327,-327 -54,26 -107,53 -161,80 111,111 222,220 331,328 53,-27 105,-54 157,-81zm165 -86c-106,-107 -212,-216 -321,-325 -52,26 -105,52 -158,78 109,110 218,219 325,327 52,-27 103,-54 154,-80zm162 -85c-104,-106 -209,-214 -315,-323 -51,26 -103,51 -156,77 108,109 215,218 321,325 50,-26 100,-53 150,-79zm160 -83c-102,-106 -206,-213 -310,-321 -51,25 -102,50 -154,75 107,109 211,217 316,324 49,-26 99,-52 148,-78zm157 -81c-100,-106 -202,-213 -305,-320 -50,24 -101,49 -151,74 105,109 208,216 310,322 50,-26 98,-51 146,-76zm-146 -399c-49,25 -99,49 -148,73 102,108 205,215 305,320 49,-25 96,-50 144,-74 -100,-105 -200,-211 -301,-319zm-480 -274c109,114 216,227 324,338 49,-24 99,-48 148,-73 -106,-111 -212,-223 -319,-336 -50,23 -101,47 -153,71zm-167 78c111,114 219,228 329,340 50,-25 100,-50 150,-74 -107,-112 -215,-225 -324,-339 -51,24 -102,49 -155,73zm-170 79c112,115 223,229 334,342 51,-25 102,-50 153,-75 -109,-113 -218,-226 -329,-341 -52,25 -105,49 -158,74zm-174 81c114,116 228,230 340,344 52,-26 105,-52 156,-77 -110,-113 -221,-227 -334,-342 -54,25 -108,50 -162,75zm-175 82c115,117 230,232 344,346 54,-26 107,-52 160,-78 -112,-114 -226,-229 -340,-344 -55,25 -109,50 -164,76zm-180 84c118,117 234,233 351,348 54,-27 108,-54 161,-80 -114,-114 -229,-230 -345,-346 -55,26 -112,52 -167,78zm-184 85c120,118 239,235 357,350 56,-27 110,-54 165,-81 -116,-115 -233,-231 -351,-348 -57,26 -114,53 -171,79zm-187 87c122,118 244,236 364,352 56,-28 112,-55 169,-83 -119,-115 -238,-232 -359,-350 -57,27 -115,54 -174,81zm-189 89c124,119 247,237 369,354 57,-29 115,-57 171,-85 -120,-116 -241,-233 -363,-352 -59,28 -118,55 -177,83zm-194 90c126,120 251,238 376,356 59,-29 117,-58 174,-86 -122,-117 -246,-235 -370,-354 -60,28 -120,56 -180,84zm-198 92c128,121 256,240 383,358 59,-29 118,-59 177,-88 -124,-117 -250,-236 -376,-356 -61,29 -123,58 -184,86zm370 365c-127,-119 -255,-238 -384,-358 -63,29 -125,58 -188,87 131,121 260,241 390,360 61,-30 121,-60 182,-89z"/>
  <path class="fil4" d="M2876 2305c-130,-119 -259,-239 -390,-360 63,-29 125,-58 188,-87 129,120 257,239 384,358 -61,29 -121,59 -182,89zm11 9c61,-30 121,-59 181,-89 122,114 242,226 362,337 -59,30 -117,61 -177,91 -121,-112 -244,-225 -366,-339zm184 -105c-127,-118 -255,-237 -383,-358 61,-28 123,-57 184,-86 126,120 252,239 376,356 -59,29 -118,59 -177,88zm371 346c-119,-111 -240,-223 -362,-337 61,-29 119,-58 179,-87 119,113 237,224 355,335 -57,30 -115,59 -172,89zm-180 -440c-125,-118 -250,-236 -376,-356 60,-28 120,-56 180,-84 124,119 248,237 370,354 -57,28 -115,57 -174,86zm364 344c-117,-110 -235,-222 -355,-335 60,-29 117,-57 175,-86 118,113 234,224 350,334 -57,29 -113,58 -170,87zm-177 -436c-122,-117 -245,-235 -369,-354 59,-28 118,-55 177,-83 122,119 243,236 363,352 -56,28 -114,56 -171,85zm184 -91c-120,-116 -242,-234 -364,-352 59,-27 117,-54 174,-81 121,118 240,235 359,350 -57,28 -113,55 -169,83zm180 -89c-118,-115 -237,-232 -357,-350 57,-26 114,-53 171,-79 118,117 235,233 351,348 -55,27 -109,54 -165,81zm178 -87c-117,-115 -233,-231 -351,-348 55,-26 112,-52 167,-78 116,116 231,232 345,346 -53,26 -107,53 -161,80zm173 -86c-114,-114 -229,-229 -344,-346 55,-26 109,-51 164,-76 114,115 228,230 340,344 -53,26 -106,52 -160,78zm171 -84c-112,-114 -226,-228 -340,-344 54,-25 108,-50 162,-75 113,115 224,229 334,342 -51,25 -104,51 -156,77zm168 -83c-111,-113 -222,-227 -334,-342 53,-25 106,-49 158,-74 111,115 220,228 329,341 -51,25 -102,50 -153,75zm173 -72c50,-25 101,-50 151,-74 103,107 205,214 305,320 -48,25 -96,50 -146,76 -102,-106 -205,-213 -310,-322zm-2222 514c135,125 269,248 401,370 130,120 261,240 389,358 376,-196 739,-385 1087,-566 336,-175 661,-344 974,-507 -104,-111 -211,-223 -318,-336 -107,-114 -216,-229 -326,-346 -334,156 -682,317 -1041,485 -373,174 -762,354 -1166,542zm1355 420c-117,-110 -232,-221 -350,-333 58,-28 115,-56 171,-85 116,112 230,223 343,332 -55,29 -110,58 -164,86zm176 -92c-113,-109 -227,-220 -342,-332 56,-27 112,-55 168,-83 113,112 226,222 337,331 -54,28 -108,56 -163,84zm-162 -421c54,-27 110,-54 165,-81 111,111 222,220 331,328 -52,28 -106,56 -159,83 -111,-109 -224,-218 -337,-330zm177 -87c54,-27 107,-54 161,-80 110,110 219,219 327,327 -52,27 -104,54 -157,81 -109,-108 -220,-217 -331,-328zm174 -86c53,-26 106,-52 158,-78 109,109 215,218 321,325 -51,26 -102,53 -154,80 -107,-108 -216,-217 -325,-327zm170 -84c53,-26 105,-51 156,-77 106,109 211,217 315,323 -50,26 -100,53 -150,79 -106,-107 -213,-216 -321,-325zm324 -173c-110,-112 -218,-226 -329,-340 53,-24 104,-49 155,-73 109,114 217,227 324,339 -50,24 -100,49 -150,74zm-157 90c52,-25 103,-50 154,-75 104,108 208,215 310,321 -49,26 -99,52 -148,78 -105,-107 -209,-215 -316,-324zm319 -170c-108,-111 -215,-224 -324,-338 52,-24 103,-48 153,-71 107,113 213,225 319,336 -49,25 -99,49 -148,73zm313 329c-100,-105 -203,-212 -305,-320 49,-24 99,-48 148,-73 101,108 201,214 301,319 -48,24 -95,49 -144,74z"/>
  <path class="fil5" d="M3244 2673c-128,-118 -259,-238 -389,-358 -132,-122 -266,-245 -401,-370 -1,9 -3,18 -4,26 5,6 11,11 17,16 133,122 263,242 393,361 127,118 254,235 379,350 377,-196 740,-385 1088,-567 336,-176 661,-345 975,-509 1,-7 2,-15 3,-22 -313,163 -638,332 -974,507 -348,181 -711,370 -1087,566z"/>
  <path class="fil5" d="M3239 2698c-125,-115 -252,-232 -379,-350 -130,-119 -260,-239 -393,-361 -8,3 -15,7 -22,10 133,122 264,242 393,361 128,118 256,235 382,350 6,-3 13,-6 19,-10 0,0 0,0 0,0z"/>
  <path class="fil5" d="M3220 2708c-126,-115 -254,-232 -382,-350 -129,-119 -260,-239 -393,-361 -2,8 -3,16 -3,24 113,104 225,207 336,308 44,40 87,80 131,120 55,52 111,103 168,154 2,3 4,5 8,8 43,40 87,81 131,120 6,-3 13,-6 20,-10 1,-7 2,-15 3,-23 -6,4 -13,7 -19,10z"/>
  <path class="fil0" d="M4243 2401c0,-7 2,-12 6,-16 0,0 0,0 0,0 10,10 22,21 33,31 -1,0 -1,0 -1,0 -11,10 -22,8 -28,3 1,93 3,185 5,278 -4,-1 -7,-3 -9,-5 -2,-97 -4,-194 -6,-291z"/>
  <path class="fil1" d="M4253 2417c11,6 20,5 29,-3 0,18 0,36 0,54 2,0 4,0 7,0 1,73 3,146 4,220 -13,9 -25,12 -35,7 -2,-93 -4,-186 -5,-278z"/>
  <path class="fil2" d="M4244 2426c-4,-3 -7,-6 -9,-10 -8,-37 -15,-74 -22,-112 38,38 76,75 114,112 -12,18 -24,36 -36,54 -3,0 -6,0 -9,0 0,-18 0,-36 0,-54 -11,-11 -21,-21 -33,-31 -4,4 -6,9 -6,16 0,8 0,17 1,25z"/>
  <path class="fil0" d="M4292 2635c61,-25 123,-50 184,-75 2,3 4,5 6,7 -63,26 -126,52 -190,78 0,-4 0,-7 0,-10z"/>
  <path class="fil7" d="M4782 2523c-104,-105 -211,-210 -318,-316 -52,28 -104,55 -157,83 109,107 216,213 324,317 50,-28 101,-56 151,-84zm161 -90c-103,-104 -207,-208 -312,-314 -52,27 -103,55 -155,82 107,106 213,211 318,315 50,-28 99,-55 149,-83zm158 -88c-101,-103 -204,-207 -308,-312 -50,26 -100,53 -150,80 103,106 208,210 311,314 49,-28 99,-55 147,-82zm156 -86c-101,-103 -201,-206 -303,-311 -50,26 -100,52 -149,79 103,105 206,209 307,312 48,-27 97,-54 145,-80zm153 -85c-99,-102 -199,-205 -299,-310 -48,26 -97,52 -147,78 103,105 203,208 303,311 48,-27 95,-53 143,-79zm150 -84c-97,-101 -196,-204 -294,-308 -48,26 -95,51 -144,77 101,104 199,207 299,309 46,-26 92,-52 139,-78zm147 -82c-95,-101 -192,-203 -288,-306 -48,25 -95,50 -142,75 98,104 196,206 293,308 46,-26 91,-52 137,-77zm145 -80c-94,-101 -189,-203 -284,-305 -47,24 -93,49 -139,73 96,104 193,206 288,307 45,-25 90,-50 135,-75zm143 -80c-93,-100 -186,-201 -281,-303 -45,24 -90,48 -136,72 95,103 191,204 284,305 44,-25 89,-49 133,-74zm141 -78c-92,-99 -184,-200 -277,-302 -44,24 -89,48 -134,72 94,102 187,203 280,303 43,-25 88,-49 131,-73zm138 -77c-90,-99 -181,-199 -273,-300 -43,23 -87,47 -132,70 93,102 184,202 276,302 43,-24 85,-48 129,-72zm-132 -374c-44,23 -87,46 -131,69 91,101 182,201 272,300 42,-23 85,-47 126,-70 -88,-99 -177,-198 -267,-299zm-426 -257c97,107 192,213 288,318 43,-24 87,-46 130,-69 -95,-105 -188,-210 -284,-316 -44,22 -88,45 -134,67zm-146 74c97,107 195,213 291,319 44,-24 89,-47 133,-71 -96,-104 -191,-210 -288,-317 -45,23 -91,46 -136,69zm-149 75c99,108 198,214 296,320 45,-24 90,-47 134,-71 -96,-105 -193,-212 -291,-319 -46,23 -92,46 -139,70zm-152 76c101,108 201,215 301,322 46,-24 91,-48 137,-73 -98,-105 -197,-212 -296,-320 -47,23 -94,47 -142,71zm-154 77c103,109 204,217 306,324 46,-25 92,-49 138,-74 -99,-106 -199,-214 -300,-322 -48,24 -96,48 -144,72zm-157 79c104,109 207,218 310,325 47,-25 95,-50 143,-75 -102,-107 -203,-215 -306,-324 -49,25 -98,49 -147,74zm-160 80c107,110 212,219 316,327 48,-25 96,-51 144,-76 -103,-108 -206,-216 -311,-326 -49,25 -98,50 -149,75zm-162 82c108,110 215,220 320,328 49,-26 98,-51 147,-77 -105,-108 -210,-217 -316,-327 -50,25 -101,50 -151,76zm-166 83c110,111 218,221 326,330 50,-26 99,-53 149,-79 -106,-108 -213,-218 -320,-329 -52,26 -103,52 -155,78zm-168 84c111,112 221,223 331,332 50,-27 101,-54 152,-80 -108,-109 -217,-219 -325,-330 -53,26 -106,52 -158,78zm-171 86c113,113 225,224 336,334 52,-27 104,-55 155,-82 -110,-109 -220,-220 -332,-332 -52,27 -105,53 -159,80zm324 340c-111,-110 -223,-221 -337,-334 -54,27 -107,54 -162,82 115,113 229,225 342,335 53,-27 106,-55 157,-83z"/>
  <path class="fil4" d="M4298 2281c-113,-110 -227,-222 -342,-335 55,-28 108,-55 162,-82 114,113 226,224 337,334 -51,28 -104,56 -157,83zm9 9c53,-28 105,-55 157,-83 107,106 214,211 318,316 -50,28 -101,56 -151,84 -108,-104 -215,-210 -324,-317zm160 -98c-111,-110 -223,-221 -336,-334 54,-27 107,-53 159,-80 112,112 222,223 332,332 -51,27 -103,55 -155,82zm327 324c-105,-104 -211,-209 -318,-315 52,-27 103,-55 155,-82 105,106 209,210 312,314 -50,28 -99,55 -149,83zm-161 -412c-110,-109 -220,-220 -331,-332 52,-26 105,-52 158,-78 108,111 217,221 325,330 -51,26 -102,53 -152,80zm321 323c-103,-104 -208,-208 -311,-314 50,-27 100,-54 150,-80 104,105 207,209 308,312 -48,27 -98,54 -147,82zm-158 -409c-108,-109 -216,-219 -326,-330 52,-26 103,-52 155,-78 107,111 214,221 320,329 -50,26 -99,53 -149,79zm160 -85c-105,-108 -212,-218 -320,-328 50,-26 101,-51 151,-76 106,110 211,219 316,327 -49,26 -98,51 -147,77zm158 -83c-104,-108 -209,-217 -316,-327 51,-25 100,-50 149,-75 105,110 208,218 311,326 -48,25 -96,51 -144,76zm154 -82c-103,-107 -206,-216 -310,-325 49,-25 98,-49 147,-74 103,109 204,217 306,324 -48,25 -96,50 -143,75zm153 -80c-102,-107 -203,-215 -306,-324 48,-24 96,-48 144,-72 101,108 201,216 300,322 -46,25 -92,49 -138,74zm149 -79c-100,-107 -200,-214 -301,-322 48,-24 95,-48 142,-71 99,108 198,215 296,320 -46,25 -91,49 -137,73zm147 -78c-98,-106 -197,-212 -296,-320 47,-24 93,-47 139,-70 98,107 195,214 291,319 -44,24 -89,47 -134,71zm152 -68c45,-23 89,-47 132,-70 92,101 183,201 273,300 -44,24 -86,48 -129,72 -92,-100 -183,-200 -276,-302zm-1941 483c118,116 236,231 352,345 114,112 229,224 342,334 327,-182 644,-358 948,-528 294,-164 580,-323 856,-476 -93,-104 -188,-210 -283,-315 -95,-107 -192,-216 -290,-325 -293,148 -597,300 -912,457 -325,163 -663,332 -1013,508zm1184 393c-101,-103 -204,-207 -307,-312 49,-27 99,-53 149,-79 102,105 202,208 303,311 -48,26 -97,53 -145,80zm155 -86c-100,-103 -200,-206 -303,-311 50,-26 99,-52 147,-78 100,105 200,208 299,310 -48,26 -95,52 -143,79zm-145 -394c49,-26 96,-51 144,-77 98,104 197,207 294,308 -47,26 -93,52 -139,78 -100,-102 -198,-205 -299,-309zm155 -82c47,-25 94,-50 142,-75 96,103 193,205 288,306 -46,25 -91,51 -137,77 -97,-102 -195,-204 -293,-308zm152 -81c46,-24 92,-49 139,-73 95,102 190,204 284,305 -45,25 -90,50 -135,75 -95,-101 -192,-203 -288,-307zm149 -79c46,-24 91,-48 136,-72 95,102 188,203 281,303 -44,25 -89,49 -133,74 -93,-101 -189,-202 -284,-305zm283 -162c-96,-106 -194,-212 -291,-319 45,-23 91,-46 136,-69 97,107 192,213 288,317 -44,24 -89,47 -133,71zm-136 85c45,-24 90,-48 134,-72 93,102 185,203 277,302 -43,24 -88,48 -131,73 -93,-100 -186,-201 -280,-303zm279 -160c-96,-105 -191,-211 -288,-318 46,-22 90,-45 134,-67 96,106 189,211 284,316 -43,23 -87,45 -130,69zm279 308c-90,-99 -181,-199 -272,-300 44,-23 87,-46 131,-69 90,101 179,200 267,299 -41,23 -84,47 -126,70z"/>
  <path class="fil5" d="M4622 2625c-113,-110 -228,-222 -342,-334 -116,-114 -234,-229 -352,-345 -1,8 -3,16 -4,24 5,5 10,10 15,15 116,113 230,226 344,337 113,110 225,219 335,327 327,-182 644,-359 949,-529 294,-165 581,-324 856,-478 1,-7 2,-14 3,-21 -276,153 -562,312 -856,476 -304,170 -621,346 -948,528z"/>
  <path class="fil5" d="M4618 2649c-110,-108 -222,-217 -335,-327 -114,-111 -228,-224 -344,-337 -6,3 -13,6 -18,9 116,113 231,226 345,337 112,111 224,220 335,328 6,-3 11,-7 17,-10 0,0 0,0 0,0z"/>
  <path class="fil5" d="M4601 2659c-111,-108 -223,-217 -335,-328 -114,-111 -229,-224 -345,-337 -1,7 -2,15 -3,22 100,97 197,193 295,288 38,38 76,75 114,112 50,48 99,97 149,144 2,3 4,5 6,7 39,38 77,76 116,113 5,-3 11,-6 17,-9 1,-7 2,-15 3,-22 -6,3 -11,7 -17,10z"/>
  <path class="fil0" d="M5495 2373c-1,-6 1,-11 5,-15 0,0 0,0 0,0 9,10 18,19 28,29 0,0 0,1 0,1 -9,9 -20,6 -26,2 2,87 5,174 7,260 -3,-1 -6,-3 -8,-5 -3,-91 -5,-182 -6,-272z"/>
  <path class="fil1" d="M5502 2388c10,6 19,5 26,-3 0,17 0,34 1,51 2,0 4,0 6,0 2,68 3,137 5,206 -11,9 -22,11 -32,6 -1,-86 -4,-173 -6,-260z"/>
  <path class="fil2" d="M5495 2397c-3,-3 -5,-6 -8,-10 -7,-35 -14,-70 -20,-105 34,35 67,70 102,105 -11,17 -21,34 -31,51 -4,0 -6,0 -9,0 0,-17 -1,-34 -1,-51 -9,-10 -19,-19 -28,-29 -4,4 -6,9 -5,15 0,8 0,16 0,24z"/>
  <path class="fil0" d="M5539 2592c53,-23 107,-46 160,-69 2,2 4,4 6,6 -55,24 -110,48 -166,72 0,-2 0,-6 0,-9z"/>
  <path class="fil8" d="M5971 2488c-94,-98 -188,-197 -283,-297 -46,26 -92,52 -138,78 96,100 191,200 286,298 44,-27 90,-53 135,-79zm141 -84c-93,-97 -186,-196 -278,-295 -45,25 -91,51 -136,77 95,99 188,198 282,296 44,-26 87,-52 132,-78zm139 -83c-91,-97 -182,-194 -275,-293 -44,25 -88,50 -133,75 94,100 186,198 279,295 43,-25 86,-51 129,-77zm136 -80c-89,-97 -179,-194 -269,-293 -44,25 -87,50 -132,74 93,99 184,197 274,294 43,-25 85,-50 127,-75zm135 -80c-88,-96 -176,-193 -266,-291 -42,24 -85,48 -128,73 89,98 180,195 268,292 42,-25 84,-50 126,-74zm132 -79c-86,-95 -173,-192 -262,-289 -42,24 -84,48 -126,71 89,99 177,195 265,291 41,-24 82,-49 123,-73zm130 -77c-85,-95 -171,-191 -258,-288 -41,23 -82,47 -124,71 88,97 175,193 261,289 41,-24 81,-48 121,-72zm129 -76c-84,-95 -169,-190 -255,-287 -40,23 -81,47 -122,70 86,97 173,193 258,288 40,-24 79,-47 119,-71zm126 -75c-82,-94 -166,-189 -250,-285 -41,22 -81,45 -121,68 85,97 170,192 253,287 40,-23 79,-46 118,-70zm124 -73c-82,-94 -164,-189 -246,-285 -40,23 -80,45 -120,68 84,96 168,191 251,285 38,-23 77,-46 115,-68zm123 -73c-81,-93 -162,-188 -244,-283 -39,22 -78,44 -117,66 83,96 165,191 247,285 38,-23 76,-45 114,-68zm-120 -353c-38,22 -77,44 -115,65 81,96 162,190 244,283 37,-22 74,-44 112,-66 -80,-93 -160,-187 -241,-282zm-379 -241c86,100 172,200 257,298 38,-21 77,-43 115,-65 -84,-98 -168,-197 -253,-297 -40,21 -79,43 -119,64zm-130 70c88,100 175,200 261,300 40,-23 78,-45 117,-67 -85,-99 -171,-198 -257,-298 -40,21 -81,43 -121,65zm-132 71c89,101 178,201 265,301 40,-23 80,-45 119,-68 -86,-99 -173,-199 -261,-299 -40,21 -81,43 -123,66zm-133 71c90,102 179,203 268,303 41,-23 81,-46 122,-68 -89,-100 -176,-200 -265,-302 -42,23 -83,45 -125,67zm-136 73c92,103 182,204 272,305 42,-23 83,-47 123,-70 -89,-100 -177,-201 -268,-303 -42,23 -84,46 -127,68zm-137 75c92,103 184,204 276,305 41,-23 83,-47 124,-70 -90,-101 -180,-202 -272,-305 -43,23 -85,47 -128,70zm-141 75c94,104 187,206 280,307 43,-24 85,-48 127,-71 -92,-101 -184,-203 -277,-306 -43,23 -87,47 -130,70zm-144 77c96,104 191,207 285,309 44,-25 86,-49 130,-73 -93,-102 -187,-204 -281,-308 -44,24 -89,48 -134,72zm-144 78c97,104 193,208 289,310 44,-25 88,-49 131,-74 -95,-102 -189,-205 -285,-309 -45,25 -90,49 -135,73zm-148 80c99,104 196,208 294,311 44,-25 89,-50 133,-75 -96,-103 -192,-206 -290,-310 -45,24 -90,49 -137,74zm-150 80c100,106 199,210 298,313 45,-25 91,-51 135,-76 -97,-103 -195,-207 -293,-312 -47,25 -93,50 -140,75zm288 319c-98,-103 -198,-208 -298,-313 -47,25 -95,51 -142,76 101,106 202,211 302,315 46,-26 92,-52 138,-78z"/>
  <path class="fil4" d="M5542 2261c-100,-104 -201,-209 -302,-315 47,-25 95,-51 142,-76 100,105 200,210 298,313 -46,26 -92,52 -138,78zm8 8c46,-26 92,-52 138,-78 95,100 189,199 283,297 -45,26 -91,52 -135,79 -95,-98 -190,-198 -286,-298zm140 -92c-99,-103 -198,-207 -298,-313 47,-25 93,-50 140,-75 98,105 196,209 293,312 -44,25 -90,51 -135,76zm290 305c-94,-98 -187,-197 -282,-296 45,-26 91,-52 136,-77 92,99 185,198 278,295 -45,26 -88,52 -132,78zm-144 -387c-98,-103 -195,-207 -294,-311 47,-25 92,-50 137,-74 98,104 194,207 290,310 -44,25 -89,50 -133,75zm286 303c-93,-97 -185,-195 -279,-295 45,-25 89,-50 133,-75 93,99 184,196 275,293 -43,26 -86,52 -129,77zm-143 -384c-96,-102 -192,-206 -289,-310 45,-24 90,-48 135,-73 96,104 190,207 285,309 -43,25 -87,49 -131,74zm140 -79c-94,-102 -189,-205 -285,-309 45,-24 90,-48 134,-72 94,104 188,206 281,308 -44,24 -86,48 -130,73zm139 -79c-93,-101 -186,-203 -280,-307 43,-23 87,-47 130,-70 93,103 185,205 277,306 -42,23 -84,47 -127,71zm137 -77c-92,-101 -184,-202 -276,-305 43,-23 85,-47 128,-70 92,103 182,204 272,305 -41,23 -83,47 -124,70zm133 -75c-90,-101 -180,-202 -272,-305 43,-22 85,-45 127,-68 91,102 179,203 268,303 -40,23 -81,47 -123,70zm132 -75c-89,-100 -178,-201 -268,-303 42,-22 83,-44 125,-67 89,102 176,202 265,302 -41,22 -81,45 -122,68zm130 -73c-87,-100 -176,-200 -265,-301 42,-23 83,-45 123,-66 88,100 175,200 261,299 -39,23 -79,45 -119,68zm135 -65c39,-22 78,-44 117,-66 82,95 163,190 244,283 -38,23 -76,45 -114,68 -82,-94 -164,-189 -247,-285zm-1709 455c104,109 208,217 310,324 101,106 203,210 303,314 288,-171 565,-336 835,-495 260,-154 513,-304 758,-450 -85,-98 -170,-197 -254,-297 -86,-100 -173,-202 -260,-305 -260,140 -529,284 -805,432 -285,154 -582,313 -887,477zm1044 370c-90,-97 -181,-195 -274,-294 45,-24 88,-49 132,-74 90,99 180,196 269,293 -42,25 -84,50 -127,75zm136 -81c-88,-97 -179,-194 -268,-292 43,-25 86,-49 128,-73 90,98 178,195 266,291 -42,24 -84,49 -126,74zm-130 -371c42,-23 84,-47 126,-71 89,97 176,194 262,289 -41,24 -82,49 -123,73 -88,-96 -176,-192 -265,-291zm136 -76c42,-24 83,-48 124,-71 87,97 173,193 258,288 -40,24 -80,48 -121,72 -86,-96 -173,-192 -261,-289zm134 -76c41,-23 82,-47 122,-70 86,97 171,192 255,287 -40,24 -79,47 -119,71 -85,-95 -172,-191 -258,-288zm132 -75c40,-23 80,-46 121,-68 84,96 168,191 250,285 -39,24 -78,47 -118,70 -83,-95 -168,-190 -253,-287zm250 -153c-86,-100 -173,-200 -261,-300 40,-22 81,-44 121,-65 86,100 172,199 257,298 -39,22 -77,44 -117,67zm-121 80c40,-23 80,-45 120,-68 82,96 164,191 246,285 -38,22 -77,45 -115,68 -83,-94 -167,-189 -251,-285zm247 -152c-85,-98 -171,-198 -257,-298 40,-21 79,-43 119,-64 85,100 169,199 253,297 -38,22 -77,44 -115,65zm251 291c-82,-93 -163,-187 -244,-283 38,-21 77,-43 115,-65 81,95 161,189 241,282 -38,22 -75,44 -112,66z"/>
  <path class="fil5" d="M5829 2584c-100,-104 -202,-208 -303,-314 -102,-107 -206,-215 -310,-324 -2,8 -3,16 -4,23 5,5 9,9 14,14 102,106 203,212 303,316 100,104 199,206 297,307 288,-171 566,-336 835,-496 261,-155 513,-305 759,-450 1,-7 1,-14 2,-21 -245,146 -498,296 -758,450 -270,159 -547,324 -835,495z"/>
  <path class="fil5" d="M5826 2606c-98,-101 -197,-203 -297,-307 -100,-104 -201,-210 -303,-316 -6,3 -11,6 -16,8 102,107 204,213 304,317 100,103 199,206 298,307 4,-3 10,-6 14,-9 0,0 0,0 0,0z"/>
  <path class="fil5" d="M5812 2615c-99,-101 -198,-204 -298,-307 -100,-104 -202,-210 -304,-317 -1,7 -3,14 -4,21 88,91 175,181 261,270 34,35 67,70 102,105 44,46 87,91 130,136 2,2 4,4 6,6 35,36 69,71 104,106 5,-2 10,-5 15,-8 0,-7 1,-14 2,-21 -4,3 -10,6 -14,9z"/>
 </g>
</svg>
