<?xml version="1.0" encoding="UTF-8"?>
<!DOCTYPE svg PUBLIC "-//W3C//DTD SVG 1.1//EN" "http://www.w3.org/Graphics/SVG/1.1/DTD/svg11.dtd">
<!-- Creator: CorelDRAW X7 -->
<svg xmlns="http://www.w3.org/2000/svg" xml:space="preserve" width="8.5in" height="11in" version="1.1" style="shape-rendering:geometricPrecision; text-rendering:geometricPrecision; image-rendering:optimizeQuality; fill-rule:evenodd; clip-rule:evenodd"
viewBox="0 0 8500 11000"
 xmlns:xlink="http://www.w3.org/1999/xlink">
 <defs>
  <style type="text/css">
   <![CDATA[
    .fil0 {fill:#4C81B5}
   ]]>
  </style>
 </defs>
 <g id="Layer_x0020_1">
  <metadata id="CorelCorpID_0Corel-Layer"/>
  <path class="fil0" d="M6149 7714c15,-22 33,-49 40,-80 11,-48 -37,-132 -46,-192 -23,-152 36,-281 106,-366 120,-148 363,-189 536,-109 54,26 110,66 140,100 264,299 74,796 -430,797 -117,0 -303,-23 -401,-79l55 -71zm652 -913c20,-53 50,-83 82,-111 39,-34 77,-43 117,-69 -38,-33 -192,-77 -250,-92 -146,-39 -226,-44 -369,-44 -500,0 -821,461 -620,876 95,194 202,213 266,268 -24,122 -208,173 -222,186 157,101 397,170 608,189 288,26 525,-78 681,-304 24,-34 50,-89 65,-134 35,-107 43,-230 14,-344 -21,-80 -51,-141 -96,-204 -17,-25 -26,-33 -43,-53 -92,-110 -210,-143 -233,-164z"/>
 </g>
</svg>
