<?xml version="1.0" encoding="UTF-8"?>
<!DOCTYPE svg PUBLIC "-//W3C//DTD SVG 1.1//EN" "http://www.w3.org/Graphics/SVG/1.1/DTD/svg11.dtd">
<!-- Creator: CorelDRAW X7 -->
<svg xmlns="http://www.w3.org/2000/svg" xml:space="preserve" width="8.5in" height="11in" version="1.1" style="shape-rendering:geometricPrecision; text-rendering:geometricPrecision; image-rendering:optimizeQuality; fill-rule:evenodd; clip-rule:evenodd"
viewBox="0 0 8500 11000"
 xmlns:xlink="http://www.w3.org/1999/xlink">
 <defs>
  <style type="text/css">
   <![CDATA[
    .fil11 {fill:#36587D}
    .fil10 {fill:#4A4949}
    .fil0 {fill:#4D82B6}
    .fil6 {fill:#666666}
    .fil12 {fill:#DAAC10}
    .fil13 {fill:#FEED01}
    .fil27 {fill:url(#id0)}
    .fil19 {fill:url(#id1)}
    .fil20 {fill:url(#id2)}
    .fil17 {fill:url(#id3)}
    .fil9 {fill:url(#id4)}
    .fil3 {fill:url(#id5)}
    .fil5 {fill:url(#id6)}
    .fil15 {fill:url(#id7)}
    .fil16 {fill:url(#id8)}
    .fil22 {fill:url(#id9)}
    .fil29 {fill:url(#id10)}
    .fil4 {fill:url(#id11)}
    .fil26 {fill:url(#id12)}
    .fil14 {fill:url(#id13)}
    .fil1 {fill:url(#id14)}
    .fil23 {fill:url(#id15)}
    .fil7 {fill:url(#id16)}
    .fil21 {fill:url(#id17)}
    .fil8 {fill:url(#id18)}
    .fil25 {fill:url(#id19)}
    .fil24 {fill:url(#id20)}
    .fil18 {fill:url(#id21)}
    .fil2 {fill:url(#id22)}
    .fil28 {fill:url(#id23)}
   ]]>
  </style>
  <linearGradient id="id0" gradientUnits="userSpaceOnUse" x1="6533.69" y1="8331.66" x2="6682.88" y2="8331.66">
   <stop offset="0" style="stop-opacity:1; stop-color:#7A7A7A"/>
   <stop offset="1" style="stop-opacity:1; stop-color:#403F3F"/>
  </linearGradient>
  <linearGradient id="id1" gradientUnits="userSpaceOnUse" xlink:href="#id0" x1="4479.65" y1="8331.66" x2="4628.84" y2="8331.66">
  </linearGradient>
  <linearGradient id="id2" gradientUnits="userSpaceOnUse" xlink:href="#id0" x1="4507.35" y1="8203.29" x2="4633.33" y2="8203.29">
  </linearGradient>
  <linearGradient id="id3" gradientUnits="userSpaceOnUse" xlink:href="#id0" x1="4402.14" y1="8271.74" x2="4519.52" y2="8271.74">
  </linearGradient>
  <linearGradient id="id4" gradientUnits="userSpaceOnUse" xlink:href="#id0" x1="2403.51" y1="8180.64" x2="2532.67" y2="8180.64">
  </linearGradient>
  <linearGradient id="id5" gradientUnits="userSpaceOnUse" x1="1759.12" y1="8292.15" x2="3059.83" y2="8292.15">
   <stop offset="0" style="stop-opacity:1; stop-color:#FEED01"/>
   <stop offset="1" style="stop-opacity:1; stop-color:#DAAC10"/>
  </linearGradient>
  <linearGradient id="id6" gradientUnits="userSpaceOnUse" xlink:href="#id0" x1="2357.14" y1="8341.2" x2="2470.11" y2="8341.2">
  </linearGradient>
  <linearGradient id="id7" gradientUnits="userSpaceOnUse" x1="3757.9" y1="8288.15" x2="5183.22" y2="8288.15">
   <stop offset="0" style="stop-opacity:1; stop-color:#4D82B6"/>
   <stop offset="1" style="stop-opacity:1; stop-color:#36587D"/>
  </linearGradient>
  <linearGradient id="id8" gradientUnits="userSpaceOnUse" xlink:href="#id5" x1="3808.31" y1="8292.15" x2="5109.03" y2="8292.15">
  </linearGradient>
  <linearGradient id="id9" gradientUnits="userSpaceOnUse" xlink:href="#id7" x1="5186.97" y1="7675.46" x2="7066.03" y2="7675.46">
  </linearGradient>
  <linearGradient id="id10" gradientUnits="userSpaceOnUse" xlink:href="#id0" x1="6506.74" y1="8180.64" x2="6635.91" y2="8180.64">
  </linearGradient>
  <linearGradient id="id11" gradientUnits="userSpaceOnUse" xlink:href="#id0" x1="2352.94" y1="8271.74" x2="2470.32" y2="8271.74">
  </linearGradient>
  <linearGradient id="id12" gradientUnits="userSpaceOnUse" xlink:href="#id0" x1="6460.38" y1="8341.2" x2="6573.35" y2="8341.2">
  </linearGradient>
  <linearGradient id="id13" gradientUnits="userSpaceOnUse" xlink:href="#id7" x1="3132.93" y1="7675.46" x2="5011.99" y2="7675.46">
  </linearGradient>
  <linearGradient id="id14" gradientUnits="userSpaceOnUse" xlink:href="#id7" x1="1083.74" y1="7675.46" x2="2962.79" y2="7675.46">
  </linearGradient>
  <linearGradient id="id15" gradientUnits="userSpaceOnUse" xlink:href="#id7" x1="5811.94" y1="8288.15" x2="7237.26" y2="8288.15">
  </linearGradient>
  <linearGradient id="id16" gradientUnits="userSpaceOnUse" xlink:href="#id0" x1="2430.46" y1="8331.66" x2="2579.65" y2="8331.66">
  </linearGradient>
  <linearGradient id="id17" gradientUnits="userSpaceOnUse" xlink:href="#id0" x1="4452.7" y1="8180.64" x2="4581.87" y2="8180.64">
  </linearGradient>
  <linearGradient id="id18" gradientUnits="userSpaceOnUse" xlink:href="#id0" x1="2458.15" y1="8203.29" x2="2584.13" y2="8203.29">
  </linearGradient>
  <linearGradient id="id19" gradientUnits="userSpaceOnUse" xlink:href="#id0" x1="6456.18" y1="8271.74" x2="6573.56" y2="8271.74">
  </linearGradient>
  <linearGradient id="id20" gradientUnits="userSpaceOnUse" xlink:href="#id5" x1="5862.35" y1="8292.15" x2="7163.07" y2="8292.15">
  </linearGradient>
  <linearGradient id="id21" gradientUnits="userSpaceOnUse" xlink:href="#id0" x1="4406.34" y1="8341.2" x2="4519.3" y2="8341.2">
  </linearGradient>
  <linearGradient id="id22" gradientUnits="userSpaceOnUse" xlink:href="#id7" x1="1708.71" y1="8288.15" x2="3134.03" y2="8288.15">
  </linearGradient>
  <linearGradient id="id23" gradientUnits="userSpaceOnUse" xlink:href="#id0" x1="6561.39" y1="8203.29" x2="6687.37" y2="8203.29">
  </linearGradient>
 </defs>
 <g id="Layer_x0020_1">
  <metadata id="CorelCorpID_0Corel-Layer"/>
  <path class="fil0" d="M2569 7317c247,64 492,127 734,190 -20,10 -42,21 -63,32 -244,-63 -489,-126 -736,-190 22,-11 43,-21 65,-32z"/>
  <path class="fil1" d="M1146 8037c231,55 460,110 689,165 -11,6 -22,11 -34,17 -229,-55 -458,-110 -689,-166 11,-5 22,-11 34,-16zm711 -349c226,57 449,112 673,167 -11,6 -22,11 -32,17 -224,-55 -449,-111 -675,-167 11,-6 22,-11 34,-17zm99 -49c226,56 449,112 672,167 -10,6 -22,11 -33,17 -222,-56 -446,-111 -671,-168 10,-5 21,-10 32,-16zm101 -49c224,57 447,112 669,168 -10,5 -21,11 -32,16 -222,-56 -446,-111 -671,-168 11,-5 23,-10 34,-16zm99 -49c223,57 446,113 668,168 -11,5 -22,11 -33,16 -222,-55 -444,-111 -667,-168 10,-5 21,-10 32,-16zm100 -49c222,57 445,113 665,168 -11,6 -22,11 -32,17 -221,-56 -443,-112 -666,-169 11,-5 22,-10 33,-16zm99 -48c222,57 443,113 663,168 -11,6 -22,11 -32,16 -220,-55 -442,-112 -664,-168 11,-5 22,-11 33,-16zm98 -49c222,57 442,113 662,169 -11,5 -22,11 -33,16 -219,-56 -440,-112 -661,-169 10,-5 21,-10 32,-16zm-1204 591c230,56 458,111 686,166 -11,5 -22,11 -34,17 -228,-55 -456,-110 -687,-166 12,-5 23,-11 35,-17zm101 -50c230,56 458,111 685,166 -11,6 -23,11 -34,17 -227,-55 -455,-110 -684,-166 11,-5 22,-11 33,-17zm103 -50c228,56 456,112 682,166 -11,6 -22,11 -34,17 -225,-55 -454,-110 -682,-166 11,-5 23,-11 34,-17zm101 -49c227,55 454,111 680,166 -11,5 -22,11 -33,16 -226,-55 -452,-110 -681,-166 11,-5 22,-11 34,-16zm101 -50c227,56 454,111 679,166 -11,6 -22,11 -33,17 -226,-55 -451,-111 -679,-167 10,-5 22,-11 33,-16zm101 -50c227,57 452,112 675,167 -10,6 -21,11 -32,17 -225,-56 -450,-111 -676,-167 11,-6 22,-11 33,-17z"/>
  <path class="fil2" d="M3215 7868c0,155 0,310 0,465 0,53 -35,113 -78,135 -171,87 -342,174 -514,262 -2,1 -4,2 -6,2 -1,1 -2,1 -3,2 -168,86 -337,173 -507,260 0,25 0,50 0,75 -87,-91 -174,-182 -261,-274 43,-91 87,-183 131,-274 43,-91 86,-183 130,-274 0,27 0,53 0,80 168,-85 336,-169 503,-253 1,-1 2,-1 2,-1 44,-22 88,-44 133,-66 3,-2 6,-3 9,-5 128,-64 255,-127 383,-191 43,-21 78,4 78,57zm-80 179c0,63 0,126 0,189 0,10 6,15 15,11 8,-4 15,-16 15,-27 0,-63 0,-126 0,-189 0,-10 -7,-15 -15,-11 -9,4 -15,16 -15,27zm-54 -68c0,126 0,253 0,379 0,11 6,16 15,11 8,-4 15,-16 15,-26 0,-127 0,-253 0,-380 0,-10 -7,-15 -15,-11 -9,4 -15,16 -15,27zm-52 26c0,126 0,253 0,380 0,10 7,15 15,11 8,-5 16,-17 16,-27 0,-126 0,-253 0,-380 0,-10 -7,-15 -16,-11 -8,4 -15,16 -15,27zm-52 121c0,64 0,127 -1,190 0,11 7,16 16,11 8,-4 15,-16 15,-26 0,-63 0,-127 0,-190 0,-10 -7,-15 -15,-11 -9,4 -15,16 -15,26zm-367 57c-99,50 -182,191 -182,314 0,122 82,180 182,129 100,-50 183,-191 183,-313 0,-121 -83,-180 -183,-130zm-149 297c0,-100 68,-216 149,-257 82,-41 150,7 150,107 0,100 -68,215 -150,257 -81,41 -149,-7 -149,-107zm-307 94c-32,16 -59,61 -59,100 0,39 27,58 59,42 32,-16 58,-62 58,-101 0,-39 -26,-57 -58,-41zm0 -48c-54,27 -99,103 -99,168 0,66 45,97 99,70 54,-27 98,-103 98,-169 0,-65 -44,-96 -98,-69zm-69 153c0,-45 31,-98 69,-117 37,-19 68,3 68,48 0,46 -31,98 -68,117 -38,19 -69,-3 -69,-48zm254 -137c0,-139 72,-295 172,-394 -142,72 -283,145 -425,218 0,-8 0,-16 0,-23 -70,148 -141,297 -212,445 71,77 141,152 211,228 0,-12 0,-23 0,-34 145,-74 290,-147 434,-220 -104,7 -180,-77 -180,-220zm-185 -35c63,-32 113,5 113,80 0,76 -50,164 -113,196 -63,31 -114,-5 -114,-81 0,-76 51,-164 114,-195zm1137 -893c-245,123 -492,247 -740,371 -252,125 -504,252 -759,379 0,7 0,15 0,22 0,0 0,0 0,0 0,146 0,293 0,439 0,146 0,292 0,438 254,-130 507,-260 759,-389 248,-128 495,-256 740,-382 0,0 0,0 0,0 0,-143 0,-286 0,-428 0,-143 0,-286 0,-429 0,-7 0,-14 0,-21z"/>
  <path class="fil3" d="M2610 8074c-167,84 -335,168 -503,253 0,-27 0,-53 0,-80 -44,91 -87,183 -130,274 -44,91 -88,183 -131,274 87,92 174,183 261,274 0,-25 0,-50 0,-75 170,-87 339,-174 507,-260 1,-1 2,-1 3,-2 2,0 4,-1 6,-2 172,-88 343,-175 514,-262 43,-22 78,-82 78,-135 0,-155 0,-310 0,-465 0,-53 -35,-78 -78,-57 -128,64 -255,127 -383,191 -3,2 -6,3 -9,5 -45,22 -89,44 -133,66 0,0 -1,0 -2,1zm0 149c-81,41 -149,157 -149,257 0,100 68,148 149,107 82,-42 150,-157 150,-257 0,-100 -68,-148 -150,-107zm-132 249c0,-53 22,-111 54,-157 22,-31 49,-57 78,-72 13,-6 26,-10 38,-12 55,-7 94,34 94,107 0,89 -59,191 -132,228 -21,11 -41,15 -58,13 -34,-4 -59,-28 -70,-69 -2,-11 -4,-24 -4,-38zm-324 90c-38,19 -69,72 -69,117 0,45 31,67 69,48 37,-19 68,-71 68,-117 0,-45 -31,-67 -68,-48zm-59 112c0,-39 27,-84 59,-100 32,-16 58,2 58,41 0,39 -26,85 -58,101 -32,16 -59,-3 -59,-42zm-40 20c0,-65 45,-141 99,-168 54,-27 98,4 98,69 0,66 -44,142 -98,169 -54,27 -99,-4 -99,-70zm212 -107c0,-75 -50,-112 -113,-80 -63,31 -114,119 -114,195 0,76 51,112 114,81 63,-32 113,-120 113,-196zm-181 -221c142,-73 283,-146 425,-218 -100,99 -172,255 -172,394 0,143 76,227 180,220 -144,73 -289,146 -434,220 0,11 0,22 0,34 -70,-76 -140,-151 -211,-228 71,-148 142,-297 212,-445 0,7 0,15 0,23zm342 131c0,-123 83,-264 182,-314 100,-50 183,9 183,130 0,122 -83,263 -183,313 -100,51 -182,-7 -182,-129zm548 -181c1,-63 1,-126 1,-190 0,-10 6,-22 15,-26 8,-4 15,1 15,11 0,63 0,127 0,190 0,10 -7,22 -15,26 -9,5 -16,0 -16,-11zm53 69c0,-127 0,-254 0,-380 0,-11 7,-23 15,-27 9,-4 16,1 16,11 0,127 0,254 0,380 0,10 -8,22 -16,27 -8,4 -15,-1 -15,-11zm52 -27c0,-126 0,-253 0,-379 0,-11 6,-23 15,-27 8,-4 15,1 15,11 0,127 0,253 0,380 0,10 -7,22 -15,26 -9,5 -15,0 -15,-11zm54 -122c0,-63 0,-126 0,-189 0,-11 6,-23 15,-27 8,-4 15,1 15,11 0,63 0,126 0,189 0,11 -7,23 -15,27 -9,4 -15,-1 -15,-11z"/>
  <path class="fil4" d="M2532 8315c-32,46 -54,104 -54,157 0,14 2,27 4,38 29,-40 57,-81 85,-122 5,-10 13,-18 23,-23 3,-2 8,-3 11,-3 -22,-15 -46,-31 -69,-47z"/>
  <path class="fil5" d="M2567 8388c-28,41 -56,82 -85,122 11,41 36,65 70,69 12,-2 25,-6 38,-13 3,-2 7,-4 11,-7 -14,-40 -28,-80 -41,-121 -2,-4 -4,-10 -4,-16 0,-12 4,-24 11,-34z"/>
  <path class="fil6" d="M2556 8422c0,6 2,12 4,16 5,10 17,13 30,7 13,-7 25,-24 30,-42 1,-5 2,-10 2,-14 0,-17 -9,-27 -21,-27 -3,0 -8,1 -11,3 -10,5 -18,13 -23,23 -7,10 -11,22 -11,34z"/>
  <path class="fil7" d="M2590 8445c-13,6 -25,3 -30,-7 13,41 27,81 41,121 55,-34 100,-105 115,-176 -42,21 -85,42 -126,62z"/>
  <path class="fil8" d="M2620 8403c-5,18 -17,35 -30,42 41,-20 84,-41 126,-62 4,-15 5,-30 5,-44 0,-53 -21,-90 -54,-103 -16,56 -31,112 -47,167z"/>
  <path class="fil9" d="M2532 8315c23,16 47,32 69,47 12,0 21,10 21,27 0,4 -1,9 -2,14 16,-55 31,-111 47,-167 -6,-2 -12,-4 -19,-5 -12,2 -25,6 -38,12 -29,15 -56,41 -78,72z"/>
  <path class="fil10" d="M2667 8236c33,13 54,50 54,103 0,14 -1,29 -5,44 -15,71 -60,142 -115,176 -4,3 -8,5 -11,7 -13,7 -26,11 -38,13 17,2 37,-2 58,-13 73,-37 132,-139 132,-228 0,-73 -39,-114 -94,-107 7,1 13,3 19,5z"/>
  <path class="fil11" d="M1792 8364c255,-127 507,-254 759,-379 248,-124 495,-248 740,-371 0,-18 0,-35 0,-53 -245,123 -492,247 -740,371 -252,125 -504,251 -759,378 0,18 0,36 0,54z"/>
  <path class="fil0" d="M1792 8310c255,-127 507,-253 759,-378 248,-124 495,-248 740,-371 -11,-2 -21,-5 -32,-8 -245,123 -492,246 -742,370 -251,126 -503,252 -758,379 11,3 22,6 33,8z"/>
  <path class="fil11" d="M1792 8364c0,-18 0,-36 0,-54 -27,14 -54,27 -80,40 0,26 0,51 0,76 26,-13 53,-27 80,-40 0,0 0,0 0,0 0,-7 0,-15 0,-22z"/>
  <path class="fil0" d="M1712 8350c26,-13 53,-26 80,-40 -11,-2 -22,-5 -33,-8 -12,-2 -23,-5 -34,-8 -5,2 -9,4 -13,7 -22,11 -45,22 -67,33 22,5 45,11 67,16z"/>
  <path class="fil11" d="M1712 8426c0,-25 0,-50 0,-76 -22,-5 -45,-10 -67,-16 0,18 0,36 0,54 0,7 0,14 0,22 11,2 22,5 33,8 12,3 23,5 34,8z"/>
  <path class="fil11" d="M1792 8386c-27,13 -54,27 -80,40 0,146 0,293 0,439 0,147 0,293 0,440 26,-14 53,-28 80,-42 0,-146 0,-292 0,-438 0,-146 0,-293 0,-439z"/>
  <path class="fil11" d="M1712 9305c0,-147 0,-293 0,-440 0,-146 0,-293 0,-439 -11,-3 -22,-5 -34,-8 0,142 0,285 0,427 0,142 0,285 0,427 0,8 0,17 0,25 12,2 23,5 34,8 0,0 0,0 0,0z"/>
  <path class="fil11" d="M1792 9263c-27,14 -54,28 -80,42 0,25 0,50 0,75 26,-14 53,-27 80,-41 0,-7 0,-14 0,-22 0,-18 0,-35 0,-54z"/>
  <path class="fil11" d="M1712 9380c0,-25 0,-50 0,-75 -11,-3 -22,-6 -34,-8 -11,-3 -22,-5 -33,-8 0,0 0,0 0,0 0,19 0,36 0,54 0,8 0,15 0,22 22,5 45,10 67,15z"/>
  <path class="fil11" d="M1792 9263c0,19 0,36 0,54 250,-128 498,-256 744,-383 244,-126 486,-251 728,-375 8,-4 17,-9 27,-14 0,-18 0,-35 0,-53 -245,126 -492,254 -740,382 -252,129 -505,259 -759,389z"/>
  <path class="fil11" d="M3291 8492c0,18 0,35 0,53 0,7 0,14 0,21 25,-13 51,-26 76,-39 0,-25 0,-49 0,-74 -25,13 -51,26 -76,39 0,0 0,0 0,0 0,0 0,0 0,0z"/>
  <path class="fil11" d="M3291 8492c25,-13 51,-26 76,-39 0,-143 0,-285 0,-428 0,-143 0,-285 0,-428 -25,13 -51,25 -76,38 0,143 0,286 0,429 0,142 0,285 0,428z"/>
  <path class="fil11" d="M3291 8566c0,-7 0,-14 0,-21 -10,5 -19,10 -27,14 8,2 17,5 27,7z"/>
  <path class="fil11" d="M3291 7635c25,-13 51,-25 76,-38 0,0 0,0 0,0 0,-25 0,-49 0,-74 -25,13 -51,26 -76,38 0,18 0,35 0,53 0,7 0,14 0,21z"/>
  <path class="fil0" d="M3291 7561c25,-12 51,-25 76,-38 -21,-5 -43,-11 -64,-16 -20,10 -42,21 -63,32 -5,2 -9,4 -13,6 11,2 21,5 32,8 11,3 21,6 32,8z"/>
  <path class="fil11" d="M1759 8302c255,-127 507,-253 758,-379 250,-124 497,-247 742,-370 -11,-3 -21,-6 -32,-8 4,-2 8,-4 13,-6 -244,-63 -489,-126 -736,-190 -4,2 -9,4 -13,6 -11,-3 -22,-6 -32,-8 -251,123 -505,247 -760,372 -257,126 -518,254 -779,382 11,2 22,5 34,8 -5,2 -10,4 -14,7 260,62 517,123 772,185 4,-3 8,-5 13,-7 11,3 22,6 34,8zm242 -183c-227,-55 -455,-110 -684,-166 11,-5 22,-11 33,-17 230,56 458,111 685,166 -11,6 -23,11 -34,17zm100 -50c-225,-55 -454,-110 -682,-166 11,-5 23,-11 34,-17 228,56 456,112 682,166 -11,6 -22,11 -34,17zm100 -50c-226,-55 -452,-110 -681,-166 11,-5 22,-11 34,-16 227,55 454,111 680,166 -11,5 -22,11 -33,16zm100 -49c-226,-55 -451,-111 -679,-167 10,-5 22,-11 33,-16 227,56 454,111 679,166 -11,6 -22,11 -33,17zm98 -49c-225,-56 -450,-111 -676,-167 11,-6 22,-11 33,-17 227,57 452,112 675,167 -10,6 -21,11 -32,17zm99 -49c-224,-55 -449,-111 -675,-167 11,-6 22,-11 34,-17 226,57 449,112 673,167 -11,6 -22,11 -32,17zm97 -49c-222,-56 -446,-111 -671,-168 10,-5 21,-10 32,-16 226,56 449,112 672,167 -10,6 -22,11 -33,17zm99 -49c-222,-56 -446,-111 -671,-168 11,-5 23,-10 34,-16 224,57 447,112 669,168 -10,5 -21,11 -32,16zm97 -49c-222,-55 -444,-111 -667,-168 10,-5 21,-10 32,-16 223,57 446,113 668,168 -11,5 -22,11 -33,16zm98 -48c-221,-56 -443,-112 -666,-169 11,-5 22,-10 33,-16 222,57 445,113 665,168 -11,6 -22,11 -32,17zm97 -49c-220,-55 -442,-112 -664,-168 11,-5 22,-11 33,-16 222,57 443,113 663,168 -11,6 -22,11 -32,16zm96 -48c-219,-56 -440,-112 -661,-169 10,-5 21,-10 32,-16 222,57 442,113 662,169 -11,5 -22,11 -33,16zm-1833 406c230,56 458,111 686,166 -11,5 -22,11 -34,17 -228,-55 -456,-110 -687,-166 12,-5 23,-11 35,-17zm-103 51c231,55 460,110 689,165 -11,6 -22,11 -34,17 -229,-55 -458,-110 -689,-166 11,-5 22,-11 34,-16z"/>
  <path class="fil0" d="M2459 7347c10,2 21,5 32,8 4,-2 9,-4 13,-6 22,-11 43,-21 65,-32 0,0 0,0 1,0 -21,-6 -44,-12 -66,-17 -26,13 -52,25 -78,38 11,3 22,6 33,9z"/>
  <path class="fil0" d="M920 8101c261,-128 522,-256 779,-382 255,-125 509,-249 760,-372 -11,-3 -22,-6 -33,-9 -252,123 -505,248 -761,373 -258,126 -518,253 -780,381 12,3 24,6 35,9z"/>
  <path class="fil0" d="M1712 8301c-255,-62 -512,-123 -772,-185 -23,11 -46,22 -68,33 0,0 0,0 0,0 259,62 517,124 773,185 0,0 0,0 0,0 0,0 0,0 0,0 22,-11 45,-22 67,-33z"/>
  <path class="fil0" d="M872 8149c22,-11 45,-22 68,-33 4,-3 9,-5 14,-7 -12,-3 -23,-6 -34,-8 -11,-3 -23,-6 -35,-9 -27,14 -54,27 -81,41 22,5 45,11 68,16z"/>
  <path class="fil11" d="M872 8204c0,-18 0,-36 0,-55 -23,-5 -46,-11 -68,-16 0,25 0,51 0,76 10,3 22,6 33,9 12,2 23,5 35,8 0,-7 0,-15 0,-22z"/>
  <path class="fil11" d="M837 9108c0,-148 0,-297 0,-445 0,-148 0,-297 0,-445 -11,-3 -23,-6 -33,-9 0,149 0,298 0,446 0,148 0,297 0,445 10,3 22,6 33,8z"/>
  <path class="fil0" d="M837 8218c0,148 0,297 0,445 0,148 0,297 0,445 12,-6 23,-11 35,-17 0,-144 0,-289 0,-433 0,-144 0,-288 0,-432 -12,-3 -23,-6 -35,-8z"/>
  <path class="fil11" d="M872 8204c259,62 517,123 773,184 0,-18 0,-36 0,-54 -256,-61 -514,-122 -773,-185 0,0 0,0 0,0 0,0 0,0 0,0 0,0 0,0 0,0 0,19 0,37 0,55z"/>
  <path class="fil11" d="M1295 8305c-140,-34 -282,-67 -423,-101 0,7 0,15 0,22 0,144 0,288 0,432 0,144 0,289 0,433 141,32 282,63 423,95 0,-147 0,-294 0,-441 0,-147 0,-293 0,-440zm-366 -33c103,25 206,49 309,73 0,26 0,51 0,76 0,26 0,51 0,77 0,65 0,130 0,195 0,26 0,51 0,76 0,66 0,132 0,197 0,26 0,51 0,77 0,25 0,50 0,76 -103,-23 -206,-47 -309,-70 0,-25 0,-51 0,-77 0,-25 0,-50 0,-76 0,-66 0,-132 0,-198 0,-26 0,-51 0,-77 0,-65 0,-130 0,-196 0,-26 0,-51 0,-76 0,-26 0,-51 0,-77z"/>
  <path class="fil0" d="M1678 9272c-128,-29 -255,-57 -383,-86 0,0 0,0 0,0 -141,-32 -282,-63 -423,-95 -12,6 -23,11 -35,17 142,32 283,64 424,95 0,0 0,0 0,0 127,29 255,58 384,86 11,3 22,5 33,8 0,-8 0,-17 0,-25z"/>
  <path class="fil11" d="M1645 9289c-129,-28 -257,-57 -384,-86 0,0 0,0 0,0 -130,-29 -259,-58 -389,-87 0,18 0,37 0,55 10,2 20,4 30,6 249,56 496,112 743,166 0,-18 0,-35 0,-54z"/>
  <path class="fil11" d="M872 9171c0,-18 0,-37 0,-55 -12,-3 -23,-5 -35,-8 -11,-2 -23,-5 -33,-8 0,26 0,51 0,77 22,5 45,10 68,15 0,-7 0,-14 0,-21z"/>
  <path class="fil11" d="M872 9171c0,7 0,14 0,22 10,-5 20,-11 30,-16 -10,-2 -20,-4 -30,-6z"/>
  <path class="fil11" d="M939 8427c0,-25 0,-50 0,-76 -3,-1 -7,-2 -10,-2 0,25 0,50 0,76 3,1 7,2 10,2z"/>
  <path class="fil11" d="M939 8700c0,-25 0,-51 0,-76 -3,-1 -7,-2 -10,-3 0,26 0,51 0,77 3,1 7,1 10,2z"/>
  <path class="fil11" d="M939 8975c0,-26 0,-51 0,-77 -3,0 -7,-1 -10,-2 0,26 0,51 0,76 3,1 7,2 10,3z"/>
  <path class="fil11" d="M1362 8527c0,-26 0,-51 0,-76 -4,-1 -8,-2 -11,-3 0,26 0,51 0,76 3,1 7,2 11,3z"/>
  <path class="fil11" d="M1362 8798c0,-25 0,-51 0,-76 -4,-1 -8,-2 -11,-2 0,25 0,50 0,75 3,1 7,2 11,3z"/>
  <path class="fil12" d="M1656 9062c-99,-22 -197,-45 -294,-67 0,25 0,50 0,76 97,22 195,44 294,66 0,-25 0,-50 0,-75zm-418 -641c-100,-23 -199,-47 -299,-70 0,26 0,51 0,76 100,24 199,47 299,71 0,-26 0,-51 0,-77zm418 99c-99,-23 -196,-46 -294,-69 0,25 0,50 0,76 98,23 195,46 294,69 0,-25 0,-50 0,-76zm0 270c-99,-22 -196,-45 -294,-68 0,25 0,51 0,76 97,23 195,45 294,68 0,-25 0,-50 0,-76zm-418 -97c-100,-23 -199,-46 -299,-69 0,25 0,51 0,76 100,23 199,46 299,69 0,-25 0,-50 0,-76zm0 273c-100,-22 -199,-45 -299,-68 0,26 0,51 0,77 100,23 199,45 299,68 0,-26 0,-51 0,-77z"/>
  <path class="fil11" d="M1362 9071c0,-26 0,-51 0,-76 -4,-1 -8,-2 -12,-3 0,26 0,51 0,76 4,1 8,2 12,3z"/>
  <path class="fil13" d="M1656 9137c-99,-22 -197,-44 -294,-66 -4,-1 -8,-2 -12,-3 0,26 0,51 0,76 102,23 204,46 306,69 0,-25 0,-50 0,-76zm-717 -786c100,23 199,47 299,70 0,-25 0,-50 0,-76 -103,-24 -206,-48 -309,-73 0,26 0,51 0,77 3,0 7,1 10,2zm299 147c-100,-24 -199,-47 -299,-71 -3,0 -7,-1 -10,-2 0,66 0,131 0,196 3,1 7,2 10,3 100,23 199,46 299,69 0,-65 0,-130 0,-195zm124 -47c98,23 195,46 294,69 0,-25 0,-50 0,-75 -102,-24 -203,-48 -305,-73 0,26 0,51 0,76 3,1 7,2 11,3zm294 145c-99,-23 -196,-46 -294,-69 -4,-1 -8,-2 -11,-3 0,66 0,131 0,196 3,0 7,1 11,2 98,23 195,46 294,68 0,-64 0,-129 0,-194zm0 270c-99,-23 -197,-45 -294,-68 -4,-1 -8,-2 -11,-3 0,66 -1,132 -1,197 4,1 8,2 12,3 97,22 195,45 294,67 0,-65 0,-131 0,-196zm-418 -97c-100,-23 -199,-46 -299,-69 -3,-1 -7,-1 -10,-2 0,66 0,132 0,198 3,1 7,2 10,2 100,23 199,46 299,68 0,-65 0,-131 0,-197zm0 274c-100,-23 -199,-45 -299,-68 -3,-1 -7,-2 -10,-3 0,26 0,52 0,77 103,23 206,47 309,70 0,-26 0,-51 0,-76z"/>
  <path class="fil11" d="M1645 8410c0,-8 0,-15 0,-22 -117,-28 -233,-56 -350,-83 0,7 0,14 0,21 0,144 0,287 0,430 0,143 0,287 0,430 128,29 255,57 383,86 0,-142 0,-285 0,-427 0,-142 0,-285 0,-427 -11,-3 -22,-6 -33,-8zm-294 -38c102,25 203,49 305,73 0,25 0,50 0,75 0,26 0,51 0,76 0,65 0,130 0,194 0,25 0,51 0,76 0,65 0,130 0,196 0,25 0,50 0,75 0,26 0,51 0,76 -102,-23 -204,-46 -306,-69 0,-25 0,-50 0,-76 0,-25 0,-50 0,-76 0,-65 1,-131 1,-197 0,-25 0,-50 0,-75 0,-65 0,-131 0,-196 0,-25 0,-50 0,-76 0,-25 0,-50 0,-76z"/>
  <path class="fil0" d="M4653 7312c230,61 459,123 687,183 -20,11 -40,21 -59,31 -229,-61 -459,-122 -689,-183 20,-11 40,-21 61,-31z"/>
  <path class="fil14" d="M3322 8007c216,54 430,108 643,160 -10,6 -21,11 -31,17 -213,-53 -428,-107 -644,-161 10,-5 21,-10 32,-16zm663 -336c211,54 422,108 631,162 -10,5 -21,10 -31,15 -209,-53 -419,-107 -631,-162 10,-5 20,-10 31,-15zm94 -48c211,55 421,109 629,162 -11,5 -20,11 -31,16 -209,-54 -418,-108 -628,-162 9,-5 20,-11 30,-16zm94 -47c210,54 418,108 626,162 -10,5 -20,11 -30,16 -208,-54 -417,-108 -627,-163 10,-5 20,-10 31,-15zm93 -48c209,55 418,109 625,163 -11,5 -20,10 -31,16 -207,-54 -415,-108 -625,-163 10,-5 21,-10 31,-16zm93 -47c209,55 417,109 623,163 -10,5 -20,10 -30,16 -207,-54 -415,-108 -624,-163 10,-5 21,-10 31,-16zm92 -47c209,55 416,109 621,163 -10,6 -20,11 -30,16 -206,-54 -412,-108 -621,-163 10,-5 20,-10 30,-16zm93 -47c207,55 414,110 619,164 -10,5 -20,10 -30,15 -206,-54 -412,-108 -619,-163 9,-5 19,-10 30,-16zm-1127 572c215,54 429,107 642,160 -10,5 -21,11 -31,16 -214,-53 -426,-106 -642,-160 10,-5 21,-11 31,-16zm96 -48c214,54 428,107 640,160 -11,5 -21,11 -32,16 -212,-53 -425,-107 -639,-161 10,-5 21,-10 31,-15zm96 -49c213,54 425,108 637,161 -11,5 -21,11 -31,16 -211,-53 -425,-107 -638,-161 10,-5 21,-10 32,-16zm94 -48c213,54 425,108 636,161 -11,5 -21,11 -31,16 -211,-53 -423,-107 -636,-161 10,-5 20,-11 31,-16zm94 -48c213,54 425,108 635,161 -11,6 -21,11 -31,16 -211,-53 -423,-107 -635,-161 11,-5 21,-11 31,-16zm94 -48c212,54 423,108 633,162 -10,5 -21,10 -31,16 -209,-54 -420,-108 -632,-162 9,-5 20,-11 30,-16z"/>
  <path class="fil15" d="M5257 7845c0,150 0,300 0,450 0,51 -33,110 -73,131 -159,84 -320,168 -481,253 -2,1 -4,1 -5,2 -1,0 -2,1 -3,1 -158,84 -316,168 -475,252 0,24 0,48 0,72 -82,-88 -163,-176 -244,-265 41,-88 81,-177 121,-265 41,-88 82,-176 123,-264 0,25 0,51 0,76 158,-82 315,-163 472,-244 0,-1 1,-1 1,-1 41,-22 83,-42 124,-64 3,-1 6,-3 9,-4 119,-62 239,-124 358,-185 41,-21 73,4 73,55zm-75 173c0,61 0,122 0,183 0,10 7,15 14,11 8,-4 15,-16 15,-26 0,-61 0,-122 0,-183 0,-10 -7,-15 -15,-11 -7,4 -14,16 -14,26zm-51 -66c0,123 0,245 0,367 0,10 7,15 15,11 8,-4 14,-16 14,-26 0,-122 0,-244 0,-367 0,-10 -6,-15 -14,-11 -8,4 -15,16 -15,26zm-48 25c0,123 0,245 0,368 0,10 7,15 15,11 7,-5 15,-16 15,-26 0,-123 0,-245 0,-368 0,-10 -8,-15 -15,-10 -8,4 -15,15 -15,25zm-48 118c0,61 0,123 0,184 0,10 5,15 14,10 8,-4 13,-15 13,-25 0,-61 0,-123 0,-184 0,-10 -6,-15 -13,-11 -9,4 -14,16 -14,26zm-343 54c-94,49 -172,185 -172,304 0,118 78,175 172,125 93,-48 169,-185 169,-302 0,-118 -76,-175 -169,-127zm-140 288c0,-97 63,-209 140,-249 76,-39 139,7 139,104 0,96 -63,208 -139,248 -77,40 -140,-6 -140,-103zm-288 90c-30,16 -55,60 -55,98 0,37 25,55 55,40 31,-16 55,-60 55,-98 0,-37 -24,-55 -55,-40zm0 -46c-51,26 -92,99 -92,163 0,63 41,94 92,67 50,-26 92,-100 92,-163 0,-63 -42,-93 -92,-67zm-64 148c0,-44 29,-95 64,-113 35,-18 63,3 63,47 0,44 -28,94 -63,113 -35,18 -64,-3 -64,-47zm237 -133c0,-134 67,-285 161,-381 -133,70 -265,140 -398,211 0,-8 0,-15 0,-22 -66,143 -131,287 -197,431 66,73 131,147 197,220 0,-11 0,-22 0,-33 136,-71 270,-142 406,-212 -98,6 -169,-75 -169,-214zm-173 -34c58,-30 107,5 107,78 0,74 -49,159 -107,189 -59,31 -107,-4 -107,-78 0,-73 48,-158 107,-189zm1065 -863c-230,119 -461,239 -694,359 -235,121 -471,243 -709,366 0,7 0,14 0,21 0,0 0,0 0,0 0,142 0,283 0,425 0,141 0,283 0,424 238,-126 474,-252 709,-376 233,-124 464,-247 694,-369 0,0 0,0 0,0 0,-138 0,-277 0,-415 0,-138 0,-276 0,-415 0,-6 0,-13 0,-20z"/>
  <path class="fil16" d="M4692 8044c-157,81 -314,162 -472,244 0,-25 0,-51 0,-76 -41,88 -82,176 -123,264 -40,88 -80,177 -121,265 81,89 162,177 244,265 0,-24 0,-48 0,-72 159,-84 317,-168 475,-252 1,0 2,-1 3,-1 1,-1 3,-1 5,-2 161,-85 322,-169 481,-253 40,-21 73,-80 73,-131 0,-150 0,-300 0,-450 0,-51 -32,-76 -73,-55 -119,61 -239,123 -358,185 -3,1 -6,3 -9,4 -41,22 -83,43 -124,64 -1,0 -1,0 -1,1zm0 144c-77,40 -140,152 -140,249 0,97 63,143 140,103 76,-40 139,-152 139,-248 0,-97 -63,-143 -139,-104zm-124 241c0,-52 19,-107 49,-151 21,-31 47,-56 75,-70 11,-6 24,-10 35,-12 50,-7 88,33 88,104 0,85 -55,185 -123,220 -21,10 -39,14 -56,12 -31,-3 -55,-27 -64,-66 -3,-11 -4,-24 -4,-37zm-304 87c-35,18 -64,69 -64,113 0,44 29,65 64,47 35,-19 63,-69 63,-113 0,-44 -28,-65 -63,-47zm-55 109c0,-38 25,-82 55,-98 31,-15 55,3 55,40 0,38 -24,82 -55,98 -30,15 -55,-3 -55,-40zm-37 19c0,-64 41,-137 92,-163 50,-26 92,4 92,67 0,63 -42,137 -92,163 -51,27 -92,-4 -92,-67zm199 -104c0,-73 -49,-108 -107,-78 -59,31 -107,116 -107,189 0,74 48,109 107,78 58,-30 107,-115 107,-189zm-171 -214c133,-71 265,-141 398,-211 -94,96 -161,247 -161,381 0,139 71,220 169,214 -136,70 -270,141 -406,212 0,11 0,22 0,33 -66,-73 -131,-147 -197,-220 66,-144 131,-288 197,-431 0,7 0,14 0,22zm320 127c0,-119 78,-255 172,-304 93,-48 169,9 169,127 0,117 -76,254 -169,302 -94,50 -172,-7 -172,-125zm515 -174c0,-61 0,-123 0,-184 0,-10 5,-22 14,-26 7,-4 13,1 13,11 0,61 0,123 0,184 0,10 -5,21 -13,25 -9,5 -14,0 -14,-10zm48 66c0,-123 0,-245 0,-368 0,-10 7,-21 15,-25 7,-5 15,0 15,10 0,123 0,245 0,368 0,10 -8,21 -15,26 -8,4 -15,-1 -15,-11zm48 -26c0,-122 0,-244 0,-367 0,-10 7,-22 15,-26 8,-4 14,1 14,11 0,123 0,245 0,367 0,10 -6,22 -14,26 -8,4 -15,-1 -15,-11zm51 -118c0,-61 0,-122 0,-183 0,-10 7,-22 14,-26 8,-4 15,1 15,11 0,61 0,122 0,183 0,10 -7,22 -15,26 -7,4 -14,-1 -14,-11z"/>
  <path class="fil17" d="M4617 8278c-30,44 -49,99 -49,151 0,13 1,26 4,37 25,-39 52,-79 78,-119 6,-9 13,-17 21,-21 4,-2 8,-3 12,-3 -22,-15 -44,-30 -66,-45z"/>
  <path class="fil18" d="M4650 8347c-26,40 -53,80 -78,119 9,39 33,63 64,66 11,-1 24,-5 35,-12 4,-2 8,-4 12,-6 -14,-39 -26,-78 -39,-118 -3,-4 -4,-9 -4,-16 0,-11 4,-22 10,-33z"/>
  <path class="fil6" d="M4640 8380c0,7 1,12 4,16 5,10 16,13 27,7 13,-7 25,-23 29,-40 1,-5 1,-10 1,-15 0,-15 -7,-25 -18,-25 -4,0 -8,1 -12,3 -8,4 -15,12 -21,21 -6,11 -10,22 -10,33z"/>
  <path class="fil19" d="M4671 8403c-11,6 -22,3 -27,-7 13,40 25,79 39,118 51,-33 94,-102 107,-171 -40,20 -80,40 -119,60z"/>
  <path class="fil20" d="M4700 8363c-4,17 -16,33 -29,40 39,-20 79,-40 119,-60 4,-14 5,-29 5,-43 0,-51 -20,-86 -51,-99 -15,54 -29,108 -44,162z"/>
  <path class="fil21" d="M4617 8278c22,15 44,30 66,45 11,0 18,10 18,25 0,5 0,10 -1,15 15,-54 29,-108 44,-162 -6,-2 -11,-4 -17,-5 -11,2 -24,6 -35,12 -28,14 -54,39 -75,70z"/>
  <path class="fil10" d="M4744 8201c31,13 51,48 51,99 0,14 -1,29 -5,43 -13,69 -56,138 -107,171 -4,2 -8,4 -12,6 -11,7 -24,11 -35,12 17,2 35,-2 56,-12 68,-35 123,-135 123,-220 0,-71 -38,-111 -88,-104 6,1 11,3 17,5z"/>
  <path class="fil11" d="M3926 8324c238,-123 474,-245 709,-366 233,-120 464,-240 694,-359 0,-17 0,-34 0,-51 -230,119 -461,238 -694,358 -235,121 -471,243 -709,366 0,18 0,35 0,52z"/>
  <path class="fil0" d="M3926 8272c238,-123 474,-245 709,-366 233,-120 464,-239 694,-358 -11,-2 -21,-5 -30,-8 -230,119 -462,238 -695,358 -235,121 -471,244 -710,366 11,3 21,6 32,8z"/>
  <path class="fil11" d="M3926 8324c0,-17 0,-34 0,-52 -25,13 -51,26 -75,39 0,24 0,49 0,73 24,-13 50,-26 75,-39 0,0 0,0 0,0 0,-7 0,-14 0,-21z"/>
  <path class="fil0" d="M3851 8311c24,-13 50,-26 75,-39 -11,-2 -21,-5 -32,-8 -11,-2 -21,-5 -32,-7 -3,2 -7,4 -11,6 -21,11 -43,21 -63,32 20,5 42,11 63,16z"/>
  <path class="fil11" d="M3851 8384c0,-24 0,-49 0,-73 -21,-5 -43,-10 -63,-16 0,18 0,35 0,52 0,7 0,14 0,21 10,3 20,5 32,8 10,3 20,5 31,8z"/>
  <path class="fil11" d="M3926 8345c-25,13 -51,26 -75,39 0,142 0,283 0,425 0,141 0,283 0,425 24,-14 50,-27 75,-40 0,-141 0,-283 0,-424 0,-142 0,-283 0,-425z"/>
  <path class="fil11" d="M3851 9234c0,-142 0,-284 0,-425 0,-142 0,-283 0,-425 -11,-3 -21,-5 -31,-8 0,138 0,276 0,413 0,138 0,276 0,413 0,8 0,16 0,24 10,3 20,5 31,8 0,0 0,0 0,0z"/>
  <path class="fil11" d="M3926 9194c-25,13 -51,26 -75,40 0,24 0,48 0,72 24,-13 50,-26 75,-39 0,-7 0,-14 0,-21 0,-17 0,-35 0,-52z"/>
  <path class="fil11" d="M3851 9306c0,-24 0,-48 0,-72 -11,-3 -21,-5 -31,-8 -12,-2 -22,-5 -32,-7 0,0 0,0 0,0 0,17 0,35 0,52 0,7 0,14 0,21 20,5 42,10 63,14z"/>
  <path class="fil11" d="M3926 9194c0,17 0,35 0,52 233,-124 465,-247 696,-370 228,-121 455,-242 680,-362 9,-5 18,-9 27,-14 0,-17 0,-34 0,-51 -230,122 -461,245 -694,369 -235,124 -471,250 -709,376z"/>
  <path class="fil11" d="M5329 8449c0,17 0,34 0,51 0,7 0,14 0,20 23,-12 47,-25 71,-38 0,-23 0,-47 0,-71 -24,13 -48,26 -71,38 0,0 0,0 0,0 0,0 0,0 0,0z"/>
  <path class="fil11" d="M5329 8449c23,-12 47,-25 71,-38 0,-138 0,-276 0,-414 0,-138 0,-276 0,-414 -24,12 -48,24 -71,36 0,139 0,277 0,415 0,138 0,277 0,415z"/>
  <path class="fil11" d="M5329 8520c0,-6 0,-13 0,-20 -9,5 -18,9 -27,14 9,2 18,4 27,6z"/>
  <path class="fil11" d="M5329 7619c23,-12 47,-24 71,-36 0,0 0,0 0,-1 0,-23 0,-47 0,-71 -24,13 -48,25 -71,37 0,17 0,34 0,51 0,7 0,14 0,20z"/>
  <path class="fil0" d="M5329 7548c23,-12 47,-24 71,-37 -20,-5 -40,-10 -60,-16 -20,11 -40,21 -59,31 -5,2 -9,4 -13,6 11,3 20,5 31,8 9,3 19,6 30,8z"/>
  <path class="fil11" d="M3894 8264c239,-122 475,-245 710,-366 233,-120 465,-239 695,-358 -11,-3 -20,-5 -31,-8 4,-2 8,-4 13,-6 -229,-61 -459,-122 -689,-183 -5,2 -8,4 -12,6 -10,-3 -21,-6 -31,-9 -236,120 -472,240 -711,361 -240,121 -484,244 -728,368 11,3 22,5 32,8 -4,2 -8,4 -12,6 242,61 483,120 721,180 4,-2 8,-4 11,-6 11,2 21,5 32,7zm227 -177c-212,-53 -425,-107 -639,-161 10,-5 21,-10 31,-15 214,54 428,107 640,160 -11,5 -21,11 -32,16zm94 -48c-211,-53 -425,-107 -638,-161 10,-5 21,-10 32,-16 213,54 425,108 637,161 -11,5 -21,11 -31,16zm93 -48c-211,-53 -423,-107 -636,-161 10,-5 20,-11 31,-16 213,54 425,108 636,161 -11,5 -21,11 -31,16zm93 -48c-211,-53 -423,-107 -635,-161 11,-5 21,-11 31,-16 213,54 425,108 635,161 -11,6 -21,11 -31,16zm92 -47c-209,-54 -420,-108 -632,-162 9,-5 20,-11 30,-16 212,54 423,108 633,162 -10,5 -21,10 -31,16zm92 -48c-209,-53 -419,-107 -631,-162 10,-5 20,-10 31,-15 211,54 422,108 631,162 -10,5 -21,10 -31,15zm92 -47c-209,-54 -418,-108 -628,-162 9,-5 20,-11 30,-16 211,55 421,109 629,162 -11,5 -20,11 -31,16zm92 -47c-208,-54 -417,-108 -627,-163 10,-5 20,-10 31,-15 210,54 418,108 626,162 -10,5 -20,11 -30,16zm91 -47c-207,-54 -415,-108 -625,-163 10,-5 21,-10 31,-16 209,55 418,109 625,163 -11,5 -20,10 -31,16zm92 -47c-207,-54 -415,-108 -624,-163 10,-5 21,-10 31,-16 209,55 417,109 623,163 -10,5 -20,10 -30,16zm90 -47c-206,-54 -412,-108 -621,-163 10,-5 20,-10 30,-16 209,55 416,109 621,163 -10,6 -20,11 -30,16zm91 -47c-206,-54 -412,-108 -619,-163 9,-5 19,-10 30,-16 207,55 414,110 619,164 -10,5 -20,10 -30,15zm-1716 393c215,54 429,107 642,160 -10,5 -21,11 -31,16 -214,-53 -426,-106 -642,-160 10,-5 21,-11 31,-16zm-95 48c216,54 430,108 643,160 -10,6 -21,11 -31,17 -213,-53 -428,-107 -644,-161 10,-5 21,-10 32,-16z"/>
  <path class="fil0" d="M4549 7340c10,3 21,6 31,9 4,-2 7,-4 12,-6 20,-11 40,-21 61,-31 0,0 0,0 0,-1 -21,-5 -41,-11 -61,-16 -24,12 -49,25 -74,37 10,3 21,6 31,8z"/>
  <path class="fil0" d="M3110 8069c244,-124 488,-247 728,-368 239,-121 475,-241 711,-361 -10,-2 -21,-5 -31,-8 -234,119 -472,239 -711,361 -241,121 -484,244 -729,368 10,3 21,5 32,8z"/>
  <path class="fil0" d="M3851 8263c-238,-60 -479,-119 -721,-180 -22,11 -44,22 -65,33 0,0 0,0 0,0 243,60 484,120 723,179 0,0 0,0 0,0 0,0 0,0 0,0 20,-11 42,-21 63,-32z"/>
  <path class="fil0" d="M3065 8116c21,-11 43,-22 65,-33 4,-2 8,-4 12,-6 -10,-3 -21,-5 -32,-8 -11,-3 -22,-5 -32,-8 -26,13 -52,26 -77,39 21,5 43,11 64,16z"/>
  <path class="fil11" d="M3065 8169c0,-18 0,-35 0,-53 -21,-5 -43,-11 -64,-16 0,25 0,49 0,74 10,3 21,5 32,8 11,3 22,5 32,8 0,-7 0,-14 0,-21z"/>
  <path class="fil11" d="M3033 9043c0,-143 0,-287 0,-430 0,-144 0,-287 0,-431 -11,-3 -22,-5 -32,-8 0,144 0,287 0,431 0,143 0,287 -1,430 11,3 22,5 33,8z"/>
  <path class="fil0" d="M3033 8182c0,144 0,287 0,431 0,143 0,287 0,430 11,-6 21,-11 32,-17 0,-139 0,-279 0,-418 0,-139 0,-279 0,-418 -10,-3 -21,-5 -32,-8z"/>
  <path class="fil11" d="M3065 8169c243,60 484,119 723,178 0,-17 0,-34 0,-52 -239,-59 -480,-119 -723,-179 0,0 0,0 0,0 0,0 0,0 0,0 0,0 0,0 0,0 0,18 0,35 0,53z"/>
  <path class="fil11" d="M3460 8266c-131,-32 -263,-64 -395,-97 0,7 0,14 0,21 0,139 0,279 0,418 0,139 0,279 0,418 132,31 264,62 395,92 0,-142 0,-284 0,-426 0,-142 0,-284 0,-426zm-341 -31c97,24 193,47 289,71 0,24 0,49 0,73 0,25 0,50 0,74 0,63 0,126 0,189 0,25 0,49 0,74 0,63 0,127 0,190 0,25 0,49 0,74 0,24 0,49 0,73 -96,-22 -192,-45 -289,-67 0,-25 0,-49 0,-74 0,-25 0,-49 0,-74 0,-64 0,-128 0,-192 0,-24 0,-49 0,-74 0,-63 0,-126 0,-190 0,-24 0,-49 0,-73 0,-25 0,-50 0,-74z"/>
  <path class="fil0" d="M3820 9202c-120,-28 -239,-56 -360,-84 0,0 0,0 0,0 -131,-30 -263,-61 -395,-92 -11,6 -21,11 -32,17 132,31 265,62 396,92 0,0 0,0 0,0 120,28 240,56 359,84 10,2 20,5 32,7 0,-8 0,-16 0,-24z"/>
  <path class="fil11" d="M3788 9219c-119,-28 -239,-56 -359,-84 0,0 0,0 0,0 -120,-28 -241,-56 -364,-85 0,18 0,36 0,53 9,3 19,5 28,7 233,54 465,108 695,161 0,-17 0,-35 0,-52z"/>
  <path class="fil11" d="M3065 9103c0,-17 0,-35 0,-53 -11,-2 -21,-5 -32,-7 -11,-3 -22,-5 -33,-8 0,25 0,50 0,74 22,5 44,10 65,15 0,-7 0,-14 0,-21z"/>
  <path class="fil11" d="M3065 9103c0,7 0,15 0,22 9,-5 19,-10 28,-15 -9,-2 -19,-4 -28,-7z"/>
  <path class="fil11" d="M3128 8385c0,-25 0,-49 0,-74 -3,-1 -6,-2 -9,-2 0,24 0,49 0,73 3,1 6,2 9,3z"/>
  <path class="fil11" d="M3128 8649c0,-25 0,-50 0,-74 -3,-1 -6,-2 -9,-3 0,25 0,50 0,74 3,1 6,2 9,3z"/>
  <path class="fil11" d="M3128 8914c0,-24 0,-49 0,-74 -3,-1 -6,-1 -9,-2 0,25 0,49 0,74 3,1 6,1 9,2z"/>
  <path class="fil11" d="M3523 8481c0,-24 0,-49 0,-73 -3,-1 -6,-2 -9,-3 0,25 0,49 0,74 3,1 6,1 9,2z"/>
  <path class="fil11" d="M3523 8743c0,-24 0,-49 0,-73 -3,-1 -6,-2 -9,-2 0,24 0,49 0,73 3,1 6,2 9,2z"/>
  <path class="fil12" d="M3798 8999c-91,-22 -183,-43 -275,-65 0,24 0,49 0,73 92,22 184,43 275,65 0,-24 0,-49 0,-73zm-390 -620c-93,-22 -186,-45 -280,-68 0,25 0,49 0,74 94,23 187,45 280,68 0,-24 0,-49 0,-74zm390 96c-91,-22 -183,-45 -275,-67 0,24 0,49 0,73 92,23 184,45 275,67 0,-24 0,-48 0,-73zm0 261c-91,-22 -183,-44 -275,-66 0,24 0,49 0,73 92,22 184,45 275,66 0,-24 0,-48 0,-73zm-390 -94c-93,-22 -186,-45 -280,-67 0,24 0,49 0,74 94,22 187,44 280,67 0,-25 0,-49 0,-74zm0 264c-93,-22 -186,-44 -280,-66 0,25 0,50 0,74 94,22 187,44 280,66 0,-25 0,-49 0,-74z"/>
  <path class="fil11" d="M3523 9007c0,-24 0,-49 0,-73 -3,-1 -6,-2 -9,-3 0,25 0,49 0,74 3,1 6,1 9,2z"/>
  <path class="fil13" d="M3798 9072c-91,-22 -183,-43 -275,-65 -3,-1 -6,-1 -9,-2 0,24 0,49 0,73 95,23 190,45 284,67 0,-24 0,-48 0,-73zm-670 -761c94,23 187,46 280,68 0,-24 0,-49 0,-73 -96,-24 -192,-47 -289,-71 0,24 0,49 0,74 3,0 6,1 9,2zm280 142c-93,-23 -186,-45 -280,-68 -3,-1 -6,-2 -9,-3 0,64 0,127 0,190 3,1 6,2 9,3 94,22 187,45 280,67 0,-63 0,-126 0,-189zm115 -45c92,22 184,45 275,67 0,-24 0,-48 0,-73 -94,-23 -189,-46 -284,-70 0,24 0,49 0,73 3,1 6,2 9,3zm275 140c-91,-22 -183,-44 -275,-67 -3,-1 -6,-1 -9,-2 0,63 0,126 0,189 3,0 6,1 9,2 92,22 184,44 275,66 0,-62 0,-125 0,-188zm0 261c-91,-21 -183,-44 -275,-66 -3,0 -6,-1 -9,-2 0,63 0,127 0,190 3,1 6,2 9,3 92,22 184,43 275,65 0,-63 0,-126 0,-190zm-390 -93c-93,-23 -186,-45 -280,-67 -3,-1 -6,-2 -9,-3 0,64 0,128 0,192 3,1 6,1 9,2 94,22 187,44 280,66 0,-63 0,-127 0,-190zm0 264c-93,-22 -186,-44 -280,-66 -3,-1 -6,-1 -9,-2 0,25 0,49 0,74 97,22 193,45 289,67 0,-24 0,-49 0,-73z"/>
  <path class="fil11" d="M3788 8368c0,-7 0,-14 0,-21 -109,-27 -218,-54 -328,-81 0,8 0,15 0,22 0,138 0,277 0,415 0,138 0,277 0,415 121,28 240,56 360,84 0,-137 0,-275 0,-413 0,-137 0,-275 0,-413 -12,-3 -22,-5 -32,-8zm-274 -36c95,23 190,47 284,70 0,25 0,49 0,73 0,25 0,49 0,73 0,63 0,126 0,188 0,25 0,49 0,73 0,63 0,127 0,190 0,24 0,49 0,73 0,24 0,49 0,73 -94,-22 -189,-44 -284,-67 0,-24 0,-49 0,-73 0,-25 0,-49 0,-74 0,-63 0,-127 0,-190 0,-24 0,-49 0,-73 0,-63 0,-126 0,-189 0,-25 0,-49 0,-74 0,-24 0,-49 0,-73z"/>
  <path class="fil0" d="M6609 7307c217,59 432,119 646,178 -19,10 -38,20 -57,29 -214,-58 -429,-118 -646,-177 19,-10 38,-20 57,-30z"/>
  <path class="fil22" d="M5362 7980c202,52 403,104 603,155 -10,5 -20,11 -30,16 -200,-52 -401,-103 -602,-156 9,-5 19,-10 29,-15zm622 -326c198,53 395,105 592,157 -10,5 -20,10 -30,15 -196,-51 -393,-104 -592,-157 10,-4 20,-10 30,-15zm87 -46c198,53 395,105 590,157 -9,5 -19,10 -29,15 -196,-51 -392,-104 -589,-157 9,-5 18,-10 28,-15zm89 -46c196,53 392,106 587,158 -9,5 -19,10 -28,15 -196,-52 -391,-105 -589,-157 10,-5 19,-11 30,-16zm87 -45c196,53 391,105 586,157 -10,5 -19,10 -28,15 -195,-52 -391,-104 -587,-157 9,-5 19,-10 29,-15zm86 -46c196,53 392,105 585,158 -9,5 -18,10 -28,15 -194,-52 -389,-105 -585,-158 10,-5 19,-10 28,-15zm88 -45c195,53 389,105 583,157 -10,5 -19,10 -29,16 -193,-53 -388,-105 -583,-159 10,-4 19,-9 29,-14zm86 -46c195,53 389,106 581,158 -9,5 -19,10 -28,15 -193,-52 -386,-105 -581,-158 9,-5 18,-10 28,-15zm-1055 553c201,52 402,104 601,155 -10,5 -20,11 -29,16 -200,-52 -401,-103 -602,-156 10,-5 20,-10 30,-15zm89 -47c200,53 401,104 599,156 -10,5 -19,10 -29,15 -199,-51 -399,-103 -599,-155 9,-5 18,-11 29,-16zm89 -47c200,53 400,105 598,156 -10,5 -20,11 -29,16 -199,-52 -398,-104 -598,-156 9,-5 19,-10 29,-16zm89 -46c200,52 398,104 596,156 -10,5 -19,10 -29,15 -198,-51 -397,-103 -597,-156 10,-5 20,-10 30,-15zm89 -47c199,53 397,105 594,157 -9,5 -19,10 -29,15 -197,-51 -396,-104 -595,-156 9,-5 20,-10 30,-16zm88 -46c199,53 396,105 593,157 -10,5 -20,10 -29,15 -197,-52 -395,-104 -594,-157 10,-5 20,-10 30,-15z"/>
  <path class="fil23" d="M7176 7823c0,146 0,291 0,436 0,49 -30,106 -68,127 -150,81 -300,162 -452,244 -1,1 -3,2 -4,3 -2,0 -2,1 -3,1 -148,81 -296,162 -445,243 0,24 0,47 0,70 -76,-85 -152,-171 -228,-257 37,-85 75,-171 113,-256 38,-85 77,-171 115,-256 0,25 0,49 0,74 148,-79 295,-158 441,-236 1,-1 1,-1 2,-1 38,-21 78,-41 117,-62 3,-2 5,-3 8,-4 112,-60 224,-119 336,-179 38,-20 68,4 68,53zm-70 168c0,59 0,118 0,177 0,10 6,14 14,11 7,-4 13,-16 13,-25 0,-60 0,-119 0,-178 0,-10 -6,-14 -13,-10 -8,4 -14,15 -14,25zm-47 -64c0,119 0,237 0,356 0,9 6,14 13,10 7,-4 13,-15 13,-25 0,-118 0,-237 0,-355 0,-10 -6,-15 -13,-11 -7,4 -13,15 -13,25zm-46 24c0,119 0,238 0,356 0,10 7,15 14,11 7,-4 13,-15 13,-25 0,-119 0,-237 0,-356 0,-10 -6,-15 -13,-10 -7,3 -14,15 -14,24zm-46 114c0,60 0,119 0,178 0,10 7,15 14,11 7,-4 13,-15 13,-25 0,-59 0,-119 0,-178 0,-10 -6,-14 -13,-10 -7,3 -14,15 -14,24zm-321 53c-87,47 -160,179 -160,294 0,114 73,169 160,121 88,-47 159,-179 159,-293 0,-114 -71,-169 -159,-122zm-132 278c0,-94 60,-202 132,-241 71,-38 131,7 131,101 0,93 -60,201 -131,240 -72,39 -132,-6 -132,-100zm-269 88c-28,15 -51,57 -51,94 0,36 23,54 51,39 28,-16 51,-58 51,-95 0,-36 -23,-54 -51,-38zm0 -45c-47,25 -86,96 -86,157 0,62 39,91 86,66 47,-26 86,-97 86,-158 0,-62 -39,-91 -86,-65zm-60 143c0,-42 27,-92 60,-109 32,-18 60,3 60,45 0,42 -28,92 -60,109 -33,18 -60,-2 -60,-45zm222 -128c0,-131 63,-276 151,-369 -124,67 -249,135 -373,203 0,-7 0,-14 0,-21 -62,139 -124,278 -185,417 62,72 123,143 185,213 0,-10 0,-21 0,-32 127,-68 254,-136 381,-204 -93,6 -159,-73 -159,-207zm-162 -33c55,-29 100,5 100,75 0,71 -45,154 -100,183 -55,30 -100,-4 -100,-75 0,-71 45,-154 100,-183zm998 -836c-215,115 -432,231 -651,347 -220,118 -441,236 -665,355 0,7 0,13 0,20 0,0 0,0 0,0 0,137 0,274 0,411 0,137 0,274 1,411 223,-122 445,-244 664,-364 219,-120 436,-238 651,-356 0,0 0,0 0,0 0,-134 0,-268 0,-402 0,-134 0,-268 0,-402 0,-7 0,-13 0,-20z"/>
  <path class="fil24" d="M6645 8016c-146,78 -293,157 -441,236 0,-25 0,-49 0,-74 -38,85 -77,171 -115,256 -38,85 -76,171 -113,256 76,86 152,172 228,257 0,-23 0,-46 0,-70 149,-81 297,-162 445,-243 1,0 1,-1 3,-1 1,-1 3,-2 4,-3 152,-82 302,-163 452,-244 38,-21 68,-78 68,-127 0,-145 0,-290 0,-436 0,-49 -30,-73 -68,-53 -112,60 -224,119 -336,179 -3,1 -5,2 -8,4 -39,21 -78,41 -117,62 -1,0 -1,0 -2,1zm1 139c-72,39 -132,147 -132,241 0,94 60,139 132,100 71,-39 131,-147 131,-240 0,-94 -60,-139 -131,-101zm-117 233c0,-49 19,-103 47,-146 20,-29 44,-54 70,-67 12,-6 22,-10 32,-12 49,-7 84,32 84,101 0,83 -52,179 -116,213 -18,10 -37,14 -52,12 -30,-4 -52,-27 -60,-64 -3,-11 -5,-24 -5,-37zm-284 85c-33,17 -60,67 -60,109 0,43 27,63 60,45 32,-17 60,-67 60,-109 0,-42 -28,-63 -60,-45zm-51 105c0,-37 23,-79 51,-94 28,-16 51,2 51,38 0,37 -23,79 -51,95 -28,15 -51,-3 -51,-39zm-35 18c0,-61 39,-132 86,-157 47,-26 86,3 86,65 0,61 -39,132 -86,158 -47,25 -86,-4 -86,-66zm186 -100c0,-70 -45,-104 -100,-75 -55,29 -100,112 -100,183 0,71 45,105 100,75 55,-29 100,-112 100,-183zm-160 -208c124,-68 249,-136 373,-203 -88,93 -151,238 -151,369 0,134 66,213 159,207 -127,68 -254,136 -381,204 0,11 0,22 0,32 -62,-70 -123,-141 -185,-213 61,-139 123,-278 185,-417 0,7 0,14 0,21zm301 124c0,-115 73,-247 160,-294 88,-47 159,8 159,122 0,114 -71,246 -159,293 -87,48 -160,-7 -160,-121zm481 -169c0,-59 0,-118 0,-178 0,-9 7,-21 14,-24 7,-4 13,0 13,10 0,59 0,119 0,178 0,10 -6,21 -13,25 -7,4 -14,-1 -14,-11zm46 64c0,-118 0,-237 0,-356 0,-9 7,-21 14,-24 7,-5 13,0 13,10 0,119 0,237 0,356 0,10 -6,21 -13,25 -7,4 -14,-1 -14,-11zm46 -24c0,-119 0,-237 0,-356 0,-10 6,-21 13,-25 7,-4 13,1 13,11 0,118 0,237 0,355 0,10 -6,21 -13,25 -7,4 -13,-1 -13,-10zm47 -115c0,-59 0,-118 0,-177 0,-10 6,-21 14,-25 7,-4 13,0 13,10 0,59 0,118 0,178 0,9 -6,21 -13,25 -8,3 -14,-1 -14,-11z"/>
  <path class="fil25" d="M6576 8242c-28,43 -47,97 -47,146 0,13 2,26 5,37 24,-39 49,-77 73,-115 5,-10 12,-17 20,-21 3,-2 8,-3 10,-3 -20,-15 -40,-29 -61,-44z"/>
  <path class="fil26" d="M6607 8310c-24,38 -49,76 -73,115 8,37 30,60 60,64 11,-2 21,-6 33,-12 3,-2 7,-4 10,-6 -12,-38 -24,-76 -36,-114 -1,-4 -3,-9 -3,-15 0,-11 4,-23 9,-32z"/>
  <path class="fil6" d="M6598 8342c0,6 2,11 3,15 5,9 14,13 26,7 12,-7 23,-23 27,-40 1,-4 2,-9 2,-13 0,-16 -8,-25 -19,-25 -2,0 -7,1 -10,3 -8,4 -15,11 -20,21 -5,9 -9,21 -9,32z"/>
  <path class="fil27" d="M6627 8364c-12,6 -21,2 -26,-7 12,38 24,76 36,114 49,-32 89,-99 101,-165 -37,19 -74,38 -111,58z"/>
  <path class="fil28" d="M6654 8324c-4,17 -15,33 -27,40 37,-20 74,-39 111,-58 3,-14 5,-28 5,-42 0,-50 -19,-84 -48,-96 -13,52 -27,104 -41,156z"/>
  <path class="fil29" d="M6576 8242c21,15 41,29 61,44 11,0 19,9 19,25 0,4 -1,9 -2,13 14,-52 28,-104 41,-156 -5,-2 -11,-4 -17,-5 -10,2 -20,6 -32,12 -26,13 -50,38 -70,67z"/>
  <path class="fil10" d="M6695 8168c29,12 48,46 48,96 0,14 -2,28 -5,42 -12,66 -52,133 -101,165 -3,2 -7,4 -10,6 -12,6 -22,10 -33,12 15,2 34,-2 52,-12 64,-34 116,-130 116,-213 0,-69 -35,-108 -84,-101 6,1 12,3 17,5z"/>
  <path class="fil11" d="M5927 8287c224,-119 445,-237 665,-355 219,-116 436,-232 651,-347 0,-16 0,-33 0,-49 -215,115 -432,230 -651,347 -220,117 -441,235 -665,354 0,16 0,33 0,50z"/>
  <path class="fil0" d="M5927 8237c224,-119 445,-237 665,-354 219,-117 436,-232 651,-347 -9,-3 -19,-5 -28,-8 -215,115 -432,231 -651,347 -221,117 -443,235 -666,354 10,2 20,5 29,8z"/>
  <path class="fil11" d="M5927 8287c0,-17 0,-34 0,-50 -23,12 -46,25 -70,37 0,24 0,47 1,71 23,-13 46,-25 69,-38 0,0 0,0 0,0 0,-7 0,-13 0,-20z"/>
  <path class="fil0" d="M5857 8274c24,-12 47,-25 70,-37 -9,-3 -19,-6 -29,-8 -10,-3 -19,-5 -29,-8 -4,2 -8,4 -12,6 -19,11 -39,21 -58,32 19,5 39,10 58,15z"/>
  <path class="fil11" d="M5858 8345c-1,-24 -1,-47 -1,-71 -19,-5 -39,-10 -58,-15 0,16 0,33 0,50 0,7 0,13 0,20 9,3 19,5 29,8 10,3 19,5 30,8z"/>
  <path class="fil11" d="M5927 8307c-23,13 -46,25 -69,38 0,137 0,274 0,411 0,137 0,274 0,411 23,-13 47,-25 70,-38 -1,-137 -1,-274 -1,-411 0,-137 0,-274 0,-411z"/>
  <path class="fil11" d="M5858 9167c0,-137 0,-274 0,-411 0,-137 0,-274 0,-411 -11,-3 -20,-5 -30,-8 0,133 0,267 0,400 0,133 0,266 0,399 0,8 0,16 0,24 10,2 20,5 30,7 0,0 0,0 0,0z"/>
  <path class="fil11" d="M5928 9129c-23,13 -47,25 -70,38 0,24 0,47 0,70 23,-12 47,-25 70,-38 0,-6 0,-13 0,-20 0,-17 0,-33 0,-50z"/>
  <path class="fil11" d="M5858 9237c0,-23 0,-46 0,-70 -10,-2 -20,-5 -30,-7 -9,-3 -20,-5 -29,-7 0,0 0,0 0,0 0,17 0,34 0,50 0,7 0,14 0,20 20,5 39,10 59,14z"/>
  <path class="fil11" d="M5928 9129c0,17 0,33 0,50 219,-120 437,-239 652,-357 215,-118 427,-235 639,-351 8,-4 16,-9 24,-13 0,-16 0,-33 0,-49 -215,118 -432,236 -651,356 -219,120 -441,242 -664,364z"/>
  <path class="fil11" d="M7243 8409c0,16 0,33 0,49 0,7 0,13 0,20 23,-13 45,-25 68,-37 0,-23 0,-46 0,-69 -23,12 -45,24 -68,37 0,0 0,0 0,0 0,0 0,0 0,0z"/>
  <path class="fil11" d="M7243 8409c23,-13 45,-25 68,-37 0,-134 0,-268 0,-401 0,-134 0,-268 0,-402 -23,12 -45,24 -68,36 0,134 0,268 0,402 0,134 0,268 0,402z"/>
  <path class="fil11" d="M7243 8478c0,-7 0,-13 0,-20 -8,4 -16,9 -24,13 8,3 16,5 24,7z"/>
  <path class="fil11" d="M7243 7605c23,-12 45,-24 68,-36 0,0 0,0 1,0 0,-23 0,-46 0,-69 -24,12 -46,24 -69,36 0,16 0,33 0,49 0,7 0,13 0,20z"/>
  <path class="fil0" d="M7243 7536c23,-12 45,-24 69,-36 -19,-5 -38,-10 -57,-15 -19,10 -38,20 -57,29 -4,2 -7,4 -11,6 9,3 18,5 28,8 9,3 19,5 28,8z"/>
  <path class="fil11" d="M5898 8229c223,-119 445,-237 666,-354 219,-116 436,-232 651,-347 -10,-3 -19,-5 -28,-8 4,-2 7,-4 11,-6 -214,-58 -429,-118 -646,-177 -3,2 -7,3 -10,5 -10,-2 -20,-5 -30,-8 -220,116 -443,232 -667,349 -225,118 -452,237 -681,356 10,3 20,6 31,8 -5,2 -9,4 -13,6 227,59 452,117 675,174 4,-2 8,-4 12,-6 10,3 19,5 29,8zm213 -172c-199,-51 -399,-103 -599,-155 9,-5 18,-11 29,-16 200,53 401,104 599,156 -10,5 -19,10 -29,15zm88 -46c-199,-52 -398,-104 -598,-156 9,-5 19,-10 29,-16 200,53 400,105 598,156 -10,5 -20,11 -29,16zm87 -47c-198,-51 -397,-103 -597,-156 10,-5 20,-10 30,-15 200,52 398,104 596,156 -10,5 -19,10 -29,15zm87 -46c-197,-51 -396,-104 -595,-156 9,-5 20,-10 30,-16 199,53 397,105 594,157 -9,5 -19,10 -29,15zm87 -46c-197,-52 -395,-104 -594,-157 10,-5 20,-10 30,-15 199,53 396,105 593,157 -10,5 -20,10 -29,15zm86 -46c-196,-51 -393,-104 -592,-157 10,-4 20,-10 30,-15 198,53 395,105 592,157 -10,5 -20,10 -30,15zm86 -46c-196,-51 -392,-104 -589,-157 9,-5 18,-10 28,-15 198,53 395,105 590,157 -9,5 -19,10 -29,15zm87 -45c-196,-52 -391,-105 -589,-157 10,-5 19,-11 30,-16 196,53 392,106 587,158 -9,5 -19,10 -28,15zm86 -46c-195,-52 -391,-104 -587,-157 9,-5 19,-10 29,-15 196,53 391,105 586,157 -10,5 -19,10 -28,15zm85 -45c-194,-52 -389,-105 -585,-158 10,-5 19,-10 28,-15 196,53 392,105 585,158 -9,5 -18,10 -28,15zm85 -45c-193,-53 -388,-105 -583,-159 10,-4 19,-9 29,-14 195,53 389,105 583,157 -10,5 -19,10 -29,16zm85 -46c-193,-52 -386,-105 -581,-158 9,-5 18,-10 28,-15 195,53 389,106 581,158 -9,5 -19,10 -28,15zm-1608 380c201,52 402,104 601,155 -10,5 -20,11 -29,16 -200,-52 -401,-103 -602,-156 10,-5 20,-10 30,-15zm-90 47c202,52 403,104 603,155 -10,5 -20,11 -30,16 -200,-52 -401,-103 -602,-156 9,-5 19,-10 29,-15z"/>
  <path class="fil0" d="M6512 7334c10,3 20,6 30,8 3,-2 7,-3 10,-5 19,-10 38,-20 57,-30 0,0 0,0 1,-1 -19,-5 -38,-10 -58,-16 -23,12 -45,24 -68,36 10,3 19,6 28,8z"/>
  <path class="fil0" d="M5164 8039c229,-119 456,-238 681,-356 224,-117 447,-233 667,-349 -9,-2 -18,-5 -28,-8 -221,116 -444,232 -668,349 -226,118 -453,237 -682,357 10,2 20,5 30,7z"/>
  <path class="fil0" d="M5857 8227c-223,-57 -448,-115 -675,-174 -20,11 -40,21 -60,32 0,0 0,0 0,0 227,58 452,116 677,173 0,1 0,1 0,1 0,0 0,0 0,0 19,-11 39,-21 58,-32z"/>
  <path class="fil0" d="M5122 8085c20,-11 40,-21 60,-32 4,-2 8,-4 13,-6 -11,-2 -21,-5 -31,-8 -10,-2 -20,-5 -30,-7 -24,12 -48,25 -72,37 19,6 40,11 60,16z"/>
  <path class="fil11" d="M5122 8136c0,-17 0,-34 0,-51 -20,-5 -41,-10 -60,-16 0,24 0,48 0,72 10,2 20,5 30,8 10,2 20,5 30,7 0,-6 0,-13 0,-20z"/>
  <path class="fil11" d="M5092 8982c0,-139 0,-278 0,-417 0,-138 0,-277 0,-416 -10,-3 -20,-6 -30,-8 0,139 0,278 0,417 0,139 0,277 0,416 10,3 20,5 30,8z"/>
  <path class="fil0" d="M5092 8149c0,139 0,278 0,416 0,139 0,278 0,417 10,-6 20,-11 30,-17 0,-134 0,-269 0,-404 0,-135 0,-270 0,-405 -10,-2 -20,-5 -30,-7z"/>
  <path class="fil11" d="M5122 8136c227,58 452,116 677,173 0,-17 0,-34 0,-50 -225,-58 -450,-116 -677,-174 0,0 0,0 0,0 0,0 0,0 0,0 0,0 0,0 0,0 0,17 0,34 0,51z"/>
  <path class="fil11" d="M5492 8231c-123,-32 -246,-63 -370,-95 0,7 0,14 0,20 0,135 0,270 0,405 0,135 0,270 0,404 124,31 247,60 370,90 0,-137 0,-275 0,-412 0,-138 0,-275 0,-412zm-320 -31c90,23 180,46 271,69 0,23 0,47 0,71 0,24 0,47 0,71 0,61 0,122 0,183 0,24 0,48 0,71 0,62 0,123 0,185 0,24 0,47 0,71 0,24 0,47 0,71 -91,-22 -181,-44 -271,-66 0,-23 0,-47 0,-71 0,-24 0,-48 0,-72 0,-61 0,-123 0,-185 0,-24 0,-48 0,-72 0,-61 0,-122 0,-183 0,-24 0,-48 0,-72 0,-24 0,-47 0,-71z"/>
  <path class="fil0" d="M5828 9136c-111,-26 -223,-54 -336,-81 0,0 0,0 0,0 -123,-30 -246,-59 -370,-90 -10,6 -20,11 -30,17 123,30 247,60 371,89 0,0 0,0 0,0 112,28 224,55 336,82 9,2 20,4 29,7 0,-8 0,-16 0,-24z"/>
  <path class="fil11" d="M5799 9153c-112,-27 -224,-54 -336,-82 0,0 0,0 0,0 -114,-27 -227,-54 -341,-82 0,17 0,34 0,51 9,2 17,4 26,6 218,53 435,106 651,157 0,-16 0,-33 0,-50z"/>
  <path class="fil11" d="M5122 9040c0,-17 0,-34 0,-51 -10,-2 -20,-5 -30,-7 -10,-3 -20,-5 -30,-8 0,24 0,48 0,72 20,5 40,10 60,14 0,-6 0,-13 0,-20z"/>
  <path class="fil11" d="M5122 9040c0,7 0,14 0,21 9,-5 17,-10 26,-15 -9,-2 -17,-4 -26,-6z"/>
  <path class="fil11" d="M5182 8345c0,-24 0,-48 0,-72 -4,0 -7,-1 -10,-2 0,24 0,48 0,72 3,1 6,1 10,2z"/>
  <path class="fil11" d="M5182 8600c0,-24 0,-47 0,-71 -4,-1 -6,-2 -10,-3 0,24 0,48 0,72 4,1 6,2 10,2z"/>
  <path class="fil11" d="M5182 8857c0,-24 0,-47 0,-71 -4,-1 -6,-2 -10,-3 0,24 0,48 0,72 4,1 6,1 10,2z"/>
  <path class="fil11" d="M5551 8438c0,-23 0,-47 0,-71 -4,0 -6,-1 -9,-2 0,24 0,48 0,71 3,1 5,2 9,2z"/>
  <path class="fil11" d="M5551 8692c0,-23 0,-47 0,-71 -4,-1 -6,-1 -9,-2 0,24 0,47 0,71 3,1 5,2 9,2z"/>
  <path class="fil12" d="M5808 8940c-86,-21 -172,-42 -257,-64 0,24 0,48 0,71 85,22 171,43 257,64 0,-24 0,-48 0,-71zm-365 -600c-88,-22 -175,-44 -261,-67 0,24 0,48 0,72 86,22 173,44 261,66 0,-24 0,-47 0,-71zm365 93c-86,-22 -172,-44 -257,-66 0,24 0,48 0,71 85,22 171,44 257,66 0,-24 0,-47 0,-71zm0 253c-86,-22 -172,-43 -257,-65 0,24 0,48 0,71 85,22 171,43 257,64 0,-23 0,-47 0,-70zm-365 -92c-88,-22 -175,-43 -261,-65 0,24 0,47 0,71 86,22 173,44 261,65 0,-23 0,-47 0,-71zm0 256c-88,-22 -175,-43 -261,-64 0,24 0,47 0,71 86,22 173,43 261,64 0,-24 0,-47 0,-71z"/>
  <path class="fil11" d="M5551 8947c0,-23 0,-47 0,-71 -3,0 -6,-1 -9,-2 0,24 0,48 0,71 3,1 6,2 9,2z"/>
  <path class="fil13" d="M5808 9011c-86,-21 -172,-42 -257,-64 -3,0 -6,-1 -9,-2 0,24 0,48 0,71 89,22 177,44 266,65 0,-23 0,-47 0,-70zm-626 -738c86,23 173,45 261,67 0,-24 0,-48 0,-71 -91,-23 -181,-46 -271,-69 0,24 0,47 0,71 3,1 6,2 10,2zm261 138c-88,-22 -175,-44 -261,-66 -4,-1 -7,-1 -10,-2 0,61 0,122 0,183 4,1 6,2 10,3 86,22 173,43 261,65 0,-61 0,-122 0,-183zm108 -44c85,22 171,44 257,66 0,-24 0,-47 0,-71 -89,-22 -177,-45 -266,-68 0,24 0,47 0,71 3,1 5,2 9,2zm257 137c-86,-22 -172,-44 -257,-66 -4,0 -6,-1 -9,-2 0,61 0,122 0,183 3,1 5,1 9,2 85,22 171,43 257,65 0,-61 0,-122 0,-182zm0 252c-86,-21 -172,-42 -257,-64 -4,0 -6,-1 -9,-2 0,61 0,123 0,184 3,1 6,2 9,2 85,22 171,43 257,64 0,-61 0,-122 0,-184zm-365 -91c-88,-21 -175,-43 -261,-65 -4,0 -6,-1 -10,-2 0,62 0,124 0,185 4,1 6,2 10,3 86,21 173,42 261,64 0,-62 0,-123 0,-185zm0 256c-88,-21 -175,-42 -261,-64 -4,-1 -6,-1 -10,-2 0,24 0,48 0,71 90,22 180,44 271,66 0,-24 0,-47 0,-71z"/>
  <path class="fil11" d="M5799 8329c0,-7 0,-13 0,-20 -103,-26 -205,-52 -307,-78 0,6 0,13 0,20 0,134 0,268 0,402 0,134 0,268 0,402 113,27 225,55 336,81 0,-133 0,-266 0,-399 0,-133 0,-267 0,-400 -10,-3 -20,-5 -29,-8zm-257 -35c89,23 177,46 266,68 0,24 0,47 0,71 0,24 0,47 0,71 0,60 0,121 0,182 0,23 0,47 0,70 0,61 0,123 0,184 0,23 0,47 0,71 0,23 0,47 0,70 -89,-21 -177,-43 -266,-65 0,-23 0,-47 0,-71 0,-24 0,-47 0,-71 0,-61 0,-123 0,-184 0,-24 0,-47 0,-71 0,-61 0,-122 0,-183 0,-24 0,-47 0,-71 0,-24 0,-47 0,-71z"/>
 </g>
</svg>
